Linefont[max,low].ufo
<glyph name="neg.0" format="2">
	<advance width="50"/>
	<outline>
		<contour>
			<point x="-25" y="100" type="line"/>
			<point x="25" y="100" type="line"/>
			<point x="25" y="-100" type="line"/>
			<point x="-25" y="-100" type="line"/>
		</contour>
	</outline>
</glyph>
<glyph name="neg.-1" format="2">
	<advance width="50"/>
	<outline>
		<contour>
			<point x="-0.485" y="122.573" type="line"/>
			<point x="49.515" y="112.573" type="line"/>
			<point x="0.485" y="-132.573" type="line"/>
			<point x="-49.515" y="-122.573" type="line"/>
		</contour>
	</outline>
</glyph>
<glyph name="neg.-100" format="2">
	<advance width="50"/>
	<outline>
		<contour>
			<point x="102.84" y="6.392" type="line"/>
			<point x="152.84" y="-993.608" type="line"/>
			<point x="-102.84" y="-1006.392" type="line"/>
			<point x="-152.84" y="-6.392" type="line"/>
		</contour>
	</outline>
</glyph>
<glyph name="neg.-101" format="2">
	<advance width="50"/>
	<outline>
		<contour>
			<point x="74.878" y="4.944" type="line"/>
			<point x="124.878" y="-1005.056" type="line"/>
			<point x="-74.878" y="-1014.944" type="line"/>
			<point x="-124.878" y="-4.944" type="line"/>
		</contour>
	</outline>
</glyph>
<glyph name="neg.-102" format="2">
	<advance width="50"/>
	<outline>
		<contour>
			<point x="74.88" y="4.896" type="line"/>
			<point x="124.88" y="-1015.104" type="line"/>
			<point x="-74.88" y="-1024.896" type="line"/>
			<point x="-124.88" y="-4.896" type="line"/>
		</contour>
	</outline>
</glyph>
<glyph name="neg.-103" format="2">
	<advance width="50"/>
	<outline>
		<contour>
			<point x="102.849" y="6.206" type="line"/>
			<point x="152.849" y="-1023.794" type="line"/>
			<point x="-102.849" y="-1036.206" type="line"/>
			<point x="-152.849" y="-6.206" type="line"/>
		</contour>
	</outline>
</glyph>
<glyph name="neg.-104" format="2">
	<advance width="50"/>
	<outline>
		<contour>
			<point x="102.852" y="6.147" type="line"/>
			<point x="152.852" y="-1033.853" type="line"/>
			<point x="-102.852" y="-1046.147" type="line"/>
			<point x="-152.852" y="-6.147" type="line"/>
		</contour>
	</outline>
</glyph>
<glyph name="neg.-105" format="2">
	<advance width="50"/>
	<outline>
		<contour>
			<point x="99.859" y="5.946" type="line"/>
			<point x="149.859" y="-1044.054" type="line"/>
			<point x="-99.859" y="-1055.946" type="line"/>
			<point x="-149.859" y="-5.946" type="line"/>
		</contour>
	</outline>
</glyph>
<glyph name="neg.-106" format="2">
	<advance width="50"/>
	<outline>
		<contour>
			<point x="99.861" y="5.89" type="line"/>
			<point x="149.861" y="-1054.11" type="line"/>
			<point x="-99.861" y="-1065.89" type="line"/>
			<point x="-149.861" y="-5.89" type="line"/>
		</contour>
	</outline>
</glyph>
<glyph name="neg.-107" format="2">
	<advance width="50"/>
	<outline>
		<contour>
			<point x="99.864" y="5.835" type="line"/>
			<point x="149.864" y="-1064.165" type="line"/>
			<point x="-99.864" y="-1075.835" type="line"/>
			<point x="-149.864" y="-5.835" type="line"/>
		</contour>
	</outline>
</glyph>
<glyph name="neg.-108" format="2">
	<advance width="50"/>
	<outline>
		<contour>
			<point x="102.863" y="5.92" type="line"/>
			<point x="152.863" y="-1074.08" type="line"/>
			<point x="-102.863" y="-1085.92" type="line"/>
			<point x="-152.863" y="-5.92" type="line"/>
		</contour>
	</outline>
</glyph>
<glyph name="neg.-109" format="2">
	<advance width="50"/>
	<outline>
		<contour>
			<point x="99.869" y="5.728" type="line"/>
			<point x="149.869" y="-1084.272" type="line"/>
			<point x="-99.869" y="-1095.728" type="line"/>
			<point x="-149.869" y="-5.728" type="line"/>
		</contour>
	</outline>
</glyph>
<glyph name="neg.-11" format="2">
	<advance width="50"/>
	<outline>
		<contour>
			<point x="91.527" y="52.967" type="line"/>
			<point x="141.527" y="-57.033" type="line"/>
			<point x="-91.527" y="-162.967" type="line"/>
			<point x="-141.527" y="-52.967" type="line"/>
		</contour>
	</outline>
</glyph>
<glyph name="neg.-110" format="2">
	<advance width="50"/>
	<outline>
		<contour>
			<point x="99.871" y="5.676" type="line"/>
			<point x="149.871" y="-1094.324" type="line"/>
			<point x="-99.871" y="-1105.676" type="line"/>
			<point x="-149.871" y="-5.676" type="line"/>
		</contour>
	</outline>
</glyph>
<glyph name="neg.-113" format="2">
	<advance width="50"/>
	<outline>
		<contour>
			<point x="99.878" y="5.526" type="line"/>
			<point x="149.878" y="-1124.474" type="line"/>
			<point x="-99.878" y="-1135.526" type="line"/>
			<point x="-149.878" y="-5.526" type="line"/>
		</contour>
	</outline>
</glyph>
<glyph name="neg.-116" format="2">
	<advance width="50"/>
	<outline>
		<contour>
			<point x="99.884" y="5.383" type="line"/>
			<point x="149.884" y="-1154.617" type="line"/>
			<point x="-99.884" y="-1165.383" type="line"/>
			<point x="-149.884" y="-5.383" type="line"/>
		</contour>
	</outline>
</glyph>
<glyph name="neg.-117" format="2">
	<advance width="50"/>
	<outline>
		<contour>
			<point x="99.886" y="5.337" type="line"/>
			<point x="149.886" y="-1164.663" type="line"/>
			<point x="-99.886" y="-1175.337" type="line"/>
			<point x="-149.886" y="-5.337" type="line"/>
		</contour>
	</outline>
</glyph>
<glyph name="neg.-118" format="2">
	<advance width="50"/>
	<outline>
		<contour>
			<point x="99.888" y="5.292" type="line"/>
			<point x="149.888" y="-1174.708" type="line"/>
			<point x="-99.888" y="-1185.292" type="line"/>
			<point x="-149.888" y="-5.292" type="line"/>
		</contour>
	</outline>
</glyph>
<glyph name="neg.-119" format="2">
	<advance width="50"/>
	<outline>
		<contour>
			<point x="102.887" y="5.373" type="line"/>
			<point x="152.887" y="-1184.627" type="line"/>
			<point x="-102.887" y="-1195.373" type="line"/>
			<point x="-152.887" y="-5.373" type="line"/>
		</contour>
	</outline>
</glyph>
<glyph name="neg.-12" format="2">
	<advance width="50"/>
	<outline>
		<contour>
			<point x="93.154" y="49.231" type="line"/>
			<point x="143.154" y="-70.769" type="line"/>
			<point x="-93.154" y="-169.231" type="line"/>
			<point x="-143.154" y="-49.231" type="line"/>
		</contour>
	</outline>
</glyph>
<glyph name="neg.-122" format="2">
	<advance width="50"/>
	<outline>
		<contour>
			<point x="102.893" y="5.242" type="line"/>
			<point x="152.893" y="-1214.758" type="line"/>
			<point x="-102.893" y="-1225.242" type="line"/>
			<point x="-152.893" y="-5.242" type="line"/>
		</contour>
	</outline>
</glyph>
<glyph name="neg.-123" format="2">
	<advance width="50"/>
	<outline>
		<contour>
			<point x="99.897" y="5.077" type="line"/>
			<point x="149.897" y="-1224.923" type="line"/>
			<point x="-99.897" y="-1235.077" type="line"/>
			<point x="-149.897" y="-5.077" type="line"/>
		</contour>
	</outline>
</glyph>
<glyph name="neg.-126" format="2">
	<advance width="50"/>
	<outline>
		<contour>
			<point x="102.899" y="5.075" type="line"/>
			<point x="152.899" y="-1254.925" type="line"/>
			<point x="-102.899" y="-1265.075" type="line"/>
			<point x="-152.899" y="-5.075" type="line"/>
		</contour>
	</outline>
</glyph>
<glyph name="neg.-127" format="2">
	<advance width="50"/>
	<outline>
		<contour>
			<point x="102.901" y="5.035" type="line"/>
			<point x="152.901" y="-1264.965" type="line"/>
			<point x="-102.901" y="-1275.035" type="line"/>
			<point x="-152.901" y="-5.035" type="line"/>
		</contour>
	</outline>
</glyph>
<glyph name="neg.-14" format="2">
	<advance width="50"/>
	<outline>
		<contour>
			<point x="92.718" y="42.042" type="line"/>
			<point x="142.718" y="-97.958" type="line"/>
			<point x="-92.718" y="-182.042" type="line"/>
			<point x="-142.718" y="-42.042" type="line"/>
		</contour>
	</outline>
</glyph>
<glyph name="neg.-15" format="2">
	<advance width="50"/>
	<outline>
		<contour>
			<point x="93.585" y="39.528" type="line"/>
			<point x="143.585" y="-110.472" type="line"/>
			<point x="-93.585" y="-189.528" type="line"/>
			<point x="-143.585" y="-39.528" type="line"/>
		</contour>
	</outline>
</glyph>
<glyph name="neg.-16" format="2">
	<advance width="50"/>
	<outline>
		<contour>
			<point x="94.31" y="37.284" type="line"/>
			<point x="144.31" y="-122.716" type="line"/>
			<point x="-94.31" y="-197.284" type="line"/>
			<point x="-144.31" y="-37.284" type="line"/>
		</contour>
	</outline>
</glyph>
<glyph name="neg.-17" format="2">
	<advance width="50"/>
	<outline>
		<contour>
			<point x="94.921" y="35.271" type="line"/>
			<point x="144.921" y="-134.729" type="line"/>
			<point x="-94.921" y="-205.271" type="line"/>
			<point x="-144.921" y="-35.271" type="line"/>
		</contour>
	</outline>
</glyph>
<glyph name="neg.-19" format="2">
	<advance width="50"/>
	<outline>
		<contour>
			<point x="71.707" y="25.449" type="line"/>
			<point x="121.707" y="-164.551" type="line"/>
			<point x="-71.707" y="-215.449" type="line"/>
			<point x="-121.707" y="-25.449" type="line"/>
		</contour>
	</outline>
</glyph>
<glyph name="neg.-2" format="2">
	<advance width="50"/>
	<outline>
		<contour>
			<point x="21.424" y="116.06" type="line"/>
			<point x="71.424" y="96.06" type="line"/>
			<point x="-21.424" y="-136.06" type="line"/>
			<point x="-71.424" y="-116.06" type="line"/>
		</contour>
	</outline>
</glyph>
<glyph name="neg.-20" format="2">
	<advance width="50"/>
	<outline>
		<contour>
			<point x="99.178" y="31.045" type="line"/>
			<point x="149.178" y="-168.955" type="line"/>
			<point x="-99.178" y="-231.045" type="line"/>
			<point x="-149.178" y="-31.045" type="line"/>
		</contour>
	</outline>
</glyph>
<glyph name="neg.-21" format="2">
	<advance width="50"/>
	<outline>
		<contour>
			<point x="96.601" y="28.953" type="line"/>
			<point x="146.601" y="-181.047" type="line"/>
			<point x="-96.601" y="-238.953" type="line"/>
			<point x="-146.601" y="-28.953" type="line"/>
		</contour>
	</outline>
</glyph>
<glyph name="neg.-22" format="2">
	<advance width="50"/>
	<outline>
		<contour>
			<point x="96.892" y="27.703" type="line"/>
			<point x="146.892" y="-192.297" type="line"/>
			<point x="-96.892" y="-247.703" type="line"/>
			<point x="-146.892" y="-27.703" type="line"/>
		</contour>
	</outline>
</glyph>
<glyph name="neg.-23" format="2">
	<advance width="50"/>
	<outline>
		<contour>
			<point x="97.147" y="26.554" type="line"/>
			<point x="147.147" y="-203.446" type="line"/>
			<point x="-97.147" y="-256.554" type="line"/>
			<point x="-147.147" y="-26.554" type="line"/>
		</contour>
	</outline>
</glyph>
<glyph name="neg.-24" format="2">
	<advance width="50"/>
	<outline>
		<contour>
			<point x="100.309" y="26.106" type="line"/>
			<point x="150.309" y="-213.894" type="line"/>
			<point x="-100.309" y="-266.106" type="line"/>
			<point x="-150.309" y="-26.106" type="line"/>
		</contour>
	</outline>
</glyph>
<glyph name="neg.-25" format="2">
	<advance width="50"/>
	<outline>
		<contour>
			<point x="100.514" y="25.103" type="line"/>
			<point x="150.514" y="-224.897" type="line"/>
			<point x="-100.514" y="-275.103" type="line"/>
			<point x="-150.514" y="-25.103" type="line"/>
		</contour>
	</outline>
</glyph>
<glyph name="neg.-27" format="2">
	<advance width="50"/>
	<outline>
		<contour>
			<point x="97.91" y="22.761" type="line"/>
			<point x="147.91" y="-247.239" type="line"/>
			<point x="-97.91" y="-292.761" type="line"/>
			<point x="-147.91" y="-22.761" type="line"/>
		</contour>
	</outline>
</glyph>
<glyph name="neg.-29" format="2">
	<advance width="50"/>
	<outline>
		<contour>
			<point x="101.139" y="21.748" type="line"/>
			<point x="151.139" y="-268.252" type="line"/>
			<point x="-101.139" y="-311.748" type="line"/>
			<point x="-151.139" y="-21.748" type="line"/>
		</contour>
	</outline>
</glyph>
<glyph name="neg.-3" format="2">
	<advance width="50"/>
	<outline>
		<contour>
			<point x="39.312" y="107.187" type="line"/>
			<point x="89.312" y="77.187" type="line"/>
			<point x="-39.312" y="-137.187" type="line"/>
			<point x="-89.312" y="-107.187" type="line"/>
		</contour>
	</outline>
</glyph>
<glyph name="neg.-30" format="2">
	<advance width="50"/>
	<outline>
		<contour>
			<point x="73.639" y="16.44" type="line"/>
			<point x="123.639" y="-283.56" type="line"/>
			<point x="-73.639" y="-316.44" type="line"/>
			<point x="-123.639" y="-16.44" type="line"/>
		</contour>
	</outline>
</glyph>
<glyph name="neg.-31" format="2">
	<advance width="50"/>
	<outline>
		<contour>
			<point x="73.724" y="15.923" type="line"/>
			<point x="123.724" y="-294.077" type="line"/>
			<point x="-73.724" y="-325.923" type="line"/>
			<point x="-123.724" y="-15.923" type="line"/>
		</contour>
	</outline>
</glyph>
<glyph name="neg.-32" format="2">
	<advance width="50"/>
	<outline>
		<contour>
			<point x="98.502" y="19.297" type="line"/>
			<point x="148.502" y="-300.703" type="line"/>
			<point x="-98.502" y="-339.297" type="line"/>
			<point x="-148.502" y="-19.297" type="line"/>
		</contour>
	</outline>
</glyph>
<glyph name="neg.-33" format="2">
	<advance width="50"/>
	<outline>
		<contour>
			<point x="98.589" y="18.726" type="line"/>
			<point x="148.589" y="-311.274" type="line"/>
			<point x="-98.589" y="-348.726" type="line"/>
			<point x="-148.589" y="-18.726" type="line"/>
		</contour>
	</outline>
</glyph>
<glyph name="neg.-34" format="2">
	<advance width="50"/>
	<outline>
		<contour>
			<point x="101.638" y="18.623" type="line"/>
			<point x="151.638" y="-321.377" type="line"/>
			<point x="-101.638" y="-358.623" type="line"/>
			<point x="-151.638" y="-18.623" type="line"/>
		</contour>
	</outline>
</glyph>
<glyph name="neg.-35" format="2">
	<advance width="50"/>
	<outline>
		<contour>
			<point x="101.714" y="18.102" type="line"/>
			<point x="151.714" y="-331.898" type="line"/>
			<point x="-101.714" y="-368.102" type="line"/>
			<point x="-151.714" y="-18.102" type="line"/>
		</contour>
	</outline>
</glyph>
<glyph name="neg.-37" format="2">
	<advance width="50"/>
	<outline>
		<contour>
			<point x="98.874" y="16.74" type="line"/>
			<point x="148.874" y="-353.26" type="line"/>
			<point x="-98.874" y="-386.74" type="line"/>
			<point x="-148.874" y="-16.74" type="line"/>
		</contour>
	</outline>
</glyph>
<glyph name="neg.-38" format="2">
	<advance width="50"/>
	<outline>
		<contour>
			<point x="98.932" y="16.307" type="line"/>
			<point x="148.932" y="-363.693" type="line"/>
			<point x="-98.932" y="-396.307" type="line"/>
			<point x="-148.932" y="-16.307" type="line"/>
		</contour>
	</outline>
</glyph>
<glyph name="neg.-39" format="2">
	<advance width="50"/>
	<outline>
		<contour>
			<point x="98.985" y="15.896" type="line"/>
			<point x="148.985" y="-374.104" type="line"/>
			<point x="-98.985" y="-405.896" type="line"/>
			<point x="-148.985" y="-15.896" type="line"/>
		</contour>
	</outline>
</glyph>
<glyph name="neg.-4" format="2">
	<advance width="50"/>
	<outline>
		<contour>
			<point x="54.961" y="99.951" type="line"/>
			<point x="104.961" y="59.951" type="line"/>
			<point x="-54.961" y="-139.951" type="line"/>
			<point x="-104.961" y="-99.951" type="line"/>
		</contour>
	</outline>
</glyph>
<glyph name="neg.-40" format="2">
	<advance width="50"/>
	<outline>
		<contour>
			<point x="102.012" y="15.876" type="line"/>
			<point x="152.012" y="-384.124" type="line"/>
			<point x="-102.012" y="-415.876" type="line"/>
			<point x="-152.012" y="-15.876" type="line"/>
		</contour>
	</outline>
</glyph>
<glyph name="neg.-41" format="2">
	<advance width="50"/>
	<outline>
		<contour>
			<point x="99.081" y="15.132" type="line"/>
			<point x="149.081" y="-394.868" type="line"/>
			<point x="-99.081" y="-425.132" type="line"/>
			<point x="-149.081" y="-15.132" type="line"/>
		</contour>
	</outline>
</glyph>
<glyph name="neg.-43" format="2">
	<advance width="50"/>
	<outline>
		<contour>
			<point x="99.163" y="14.438" type="line"/>
			<point x="149.163" y="-415.562" type="line"/>
			<point x="-99.163" y="-444.438" type="line"/>
			<point x="-149.163" y="-14.438" type="line"/>
		</contour>
	</outline>
</glyph>
<glyph name="neg.-44" format="2">
	<advance width="50"/>
	<outline>
		<contour>
			<point x="99.201" y="14.114" type="line"/>
			<point x="149.201" y="-425.886" type="line"/>
			<point x="-99.201" y="-454.114" type="line"/>
			<point x="-149.201" y="-14.114" type="line"/>
		</contour>
	</outline>
</glyph>
<glyph name="neg.-46" format="2">
	<advance width="50"/>
	<outline>
		<contour>
			<point x="102.25" y="13.832" type="line"/>
			<point x="152.25" y="-446.168" type="line"/>
			<point x="-102.25" y="-473.832" type="line"/>
			<point x="-152.25" y="-13.832" type="line"/>
		</contour>
	</outline>
</glyph>
<glyph name="neg.-47" format="2">
	<advance width="50"/>
	<outline>
		<contour>
			<point x="102.282" y="13.541" type="line"/>
			<point x="152.282" y="-456.459" type="line"/>
			<point x="-102.282" y="-483.541" type="line"/>
			<point x="-152.282" y="-13.541" type="line"/>
		</contour>
	</outline>
</glyph>
<glyph name="neg.-48" format="2">
	<advance width="50"/>
	<outline>
		<contour>
			<point x="74.462" y="10.361" type="line"/>
			<point x="124.462" y="-469.639" type="line"/>
			<point x="-74.462" y="-490.361" type="line"/>
			<point x="-124.462" y="-10.361" type="line"/>
		</contour>
	</outline>
</glyph>
<glyph name="neg.-5" format="2">
	<advance width="50"/>
	<outline>
		<contour>
			<point x="45.711" y="70.711" type="line"/>
			<point x="95.711" y="20.711" type="line"/>
			<point x="-45.711" y="-120.711" type="line"/>
			<point x="-95.711" y="-70.711" type="line"/>
		</contour>
	</outline>
</glyph>
<glyph name="neg.-50" format="2">
	<advance width="50"/>
	<outline>
		<contour>
			<point x="102.365" y="12.736" type="line"/>
			<point x="152.365" y="-487.264" type="line"/>
			<point x="-102.365" y="-512.736" type="line"/>
			<point x="-152.365" y="-12.736" type="line"/>
		</contour>
	</outline>
</glyph>
<glyph name="neg.-51" format="2">
	<advance width="50"/>
	<outline>
		<contour>
			<point x="102.389" y="12.489" type="line"/>
			<point x="152.389" y="-497.511" type="line"/>
			<point x="-102.389" y="-522.489" type="line"/>
			<point x="-152.389" y="-12.489" type="line"/>
		</contour>
	</outline>
</glyph>
<glyph name="neg.-52" format="2">
	<advance width="50"/>
	<outline>
		<contour>
			<point x="102.412" y="12.251" type="line"/>
			<point x="152.412" y="-507.749" type="line"/>
			<point x="-102.412" y="-532.251" type="line"/>
			<point x="-152.412" y="-12.251" type="line"/>
		</contour>
	</outline>
</glyph>
<glyph name="neg.-53" format="2">
	<advance width="50"/>
	<outline>
		<contour>
			<point x="99.447" y="11.74" type="line"/>
			<point x="149.447" y="-518.26" type="line"/>
			<point x="-99.447" y="-541.74" type="line"/>
			<point x="-149.447" y="-11.74" type="line"/>
		</contour>
	</outline>
</glyph>
<glyph name="neg.-54" format="2">
	<advance width="50"/>
	<outline>
		<contour>
			<point x="74.574" y="9.22" type="line"/>
			<point x="124.574" y="-530.78" type="line"/>
			<point x="-74.574" y="-549.22" type="line"/>
			<point x="-124.574" y="-9.22" type="line"/>
		</contour>
	</outline>
</glyph>
<glyph name="neg.-55" format="2">
	<advance width="50"/>
	<outline>
		<contour>
			<point x="74.589" y="9.054" type="line"/>
			<point x="124.589" y="-540.946" type="line"/>
			<point x="-74.589" y="-559.054" type="line"/>
			<point x="-124.589" y="-9.054" type="line"/>
		</contour>
	</outline>
</glyph>
<glyph name="neg.-56" format="2">
	<advance width="50"/>
	<outline>
		<contour>
			<point x="102.493" y="11.383" type="line"/>
			<point x="152.493" y="-548.617" type="line"/>
			<point x="-102.493" y="-571.383" type="line"/>
			<point x="-152.493" y="-11.383" type="line"/>
		</contour>
	</outline>
</glyph>
<glyph name="neg.-57" format="2">
	<advance width="50"/>
	<outline>
		<contour>
			<point x="102.51" y="11.185" type="line"/>
			<point x="152.51" y="-558.815" type="line"/>
			<point x="-102.51" y="-581.185" type="line"/>
			<point x="-152.51" y="-11.185" type="line"/>
		</contour>
	</outline>
</glyph>
<glyph name="neg.-58" format="2">
	<advance width="50"/>
	<outline>
		<contour>
			<point x="74.63" y="8.589" type="line"/>
			<point x="124.63" y="-571.411" type="line"/>
			<point x="-74.63" y="-588.589" type="line"/>
			<point x="-124.63" y="-8.589" type="line"/>
		</contour>
	</outline>
</glyph>
<glyph name="neg.-59" format="2">
	<advance width="50"/>
	<outline>
		<contour>
			<point x="102.543" y="10.809" type="line"/>
			<point x="152.543" y="-579.191" type="line"/>
			<point x="-102.543" y="-600.809" type="line"/>
			<point x="-152.543" y="-10.809" type="line"/>
		</contour>
	</outline>
</glyph>
<glyph name="neg.-6" format="2">
	<advance width="50"/>
	<outline>
		<contour>
			<point x="73.332" y="81.944" type="line"/>
			<point x="123.332" y="21.944" type="line"/>
			<point x="-73.332" y="-141.944" type="line"/>
			<point x="-123.332" y="-81.944" type="line"/>
		</contour>
	</outline>
</glyph>
<glyph name="neg.-60" format="2">
	<advance width="50"/>
	<outline>
		<contour>
			<point x="99.568" y="10.381" type="line"/>
			<point x="149.568" y="-589.619" type="line"/>
			<point x="-99.568" y="-610.381" type="line"/>
			<point x="-149.568" y="-10.381" type="line"/>
		</contour>
	</outline>
</glyph>
<glyph name="neg.-61" format="2">
	<advance width="50"/>
	<outline>
		<contour>
			<point x="102.572" y="10.457" type="line"/>
			<point x="152.572" y="-599.543" type="line"/>
			<point x="-102.572" y="-620.457" type="line"/>
			<point x="-152.572" y="-10.457" type="line"/>
		</contour>
	</outline>
</glyph>
<glyph name="neg.-62" format="2">
	<advance width="50"/>
	<outline>
		<contour>
			<point x="102.586" y="10.289" type="line"/>
			<point x="152.586" y="-609.711" type="line"/>
			<point x="-102.586" y="-630.289" type="line"/>
			<point x="-152.586" y="-10.289" type="line"/>
		</contour>
	</outline>
</glyph>
<glyph name="neg.-63" format="2">
	<advance width="50"/>
	<outline>
		<contour>
			<point x="102.599" y="10.127" type="line"/>
			<point x="152.599" y="-619.873" type="line"/>
			<point x="-102.599" y="-640.127" type="line"/>
			<point x="-152.599" y="-10.127" type="line"/>
		</contour>
	</outline>
</glyph>
<glyph name="neg.-64" format="2">
	<advance width="50"/>
	<outline>
		<contour>
			<point x="102.611" y="9.97" type="line"/>
			<point x="152.611" y="-630.03" type="line"/>
			<point x="-102.611" y="-649.97" type="line"/>
			<point x="-152.611" y="-9.97" type="line"/>
		</contour>
	</outline>
</glyph>
<glyph name="neg.-65" format="2">
	<advance width="50"/>
	<outline>
		<contour>
			<point x="99.632" y="9.587" type="line"/>
			<point x="149.632" y="-640.413" type="line"/>
			<point x="-99.632" y="-659.587" type="line"/>
			<point x="-149.632" y="-9.587" type="line"/>
		</contour>
	</outline>
</glyph>
<glyph name="neg.-66" format="2">
	<advance width="50"/>
	<outline>
		<contour>
			<point x="99.643" y="9.443" type="line"/>
			<point x="149.643" y="-650.557" type="line"/>
			<point x="-99.643" y="-669.443" type="line"/>
			<point x="-149.643" y="-9.443" type="line"/>
		</contour>
	</outline>
</glyph>
<glyph name="neg.-67" format="2">
	<advance width="50"/>
	<outline>
		<contour>
			<point x="102.645" y="9.526" type="line"/>
			<point x="152.645" y="-660.474" type="line"/>
			<point x="-102.645" y="-679.526" type="line"/>
			<point x="-152.645" y="-9.526" type="line"/>
		</contour>
	</outline>
</glyph>
<glyph name="neg.-69" format="2">
	<advance width="50"/>
	<outline>
		<contour>
			<point x="102.665" y="9.251" type="line"/>
			<point x="152.665" y="-680.749" type="line"/>
			<point x="-102.665" y="-699.251" type="line"/>
			<point x="-152.665" y="-9.251" type="line"/>
		</contour>
	</outline>
</glyph>
<glyph name="neg.-7" format="2">
	<advance width="50"/>
	<outline>
		<contour>
			<point x="76.717" y="72.655" type="line"/>
			<point x="126.717" y="2.655" type="line"/>
			<point x="-76.717" y="-142.655" type="line"/>
			<point x="-126.717" y="-72.655" type="line"/>
		</contour>
	</outline>
</glyph>
<glyph name="neg.-70" format="2">
	<advance width="50"/>
	<outline>
		<contour>
			<point x="102.675" y="9.12" type="line"/>
			<point x="152.675" y="-690.88" type="line"/>
			<point x="-102.675" y="-709.12" type="line"/>
			<point x="-152.675" y="-9.12" type="line"/>
		</contour>
	</outline>
</glyph>
<glyph name="neg.-71" format="2">
	<advance width="50"/>
	<outline>
		<contour>
			<point x="102.684" y="8.992" type="line"/>
			<point x="152.684" y="-701.008" type="line"/>
			<point x="-102.684" y="-718.992" type="line"/>
			<point x="-152.684" y="-8.992" type="line"/>
		</contour>
	</outline>
</glyph>
<glyph name="neg.-73" format="2">
	<advance width="50"/>
	<outline>
		<contour>
			<point x="102.701" y="8.747" type="line"/>
			<point x="152.701" y="-721.253" type="line"/>
			<point x="-102.701" y="-738.747" type="line"/>
			<point x="-152.701" y="-8.747" type="line"/>
		</contour>
	</outline>
</glyph>
<glyph name="neg.-76" format="2">
	<advance width="50"/>
	<outline>
		<contour>
			<point x="99.73" y="8.206" type="line"/>
			<point x="149.73" y="-751.794" type="line"/>
			<point x="-99.73" y="-768.206" type="line"/>
			<point x="-149.73" y="-8.206" type="line"/>
		</contour>
	</outline>
</glyph>
<glyph name="neg.-78" format="2">
	<advance width="50"/>
	<outline>
		<contour>
			<point x="74.795" y="6.397" type="line"/>
			<point x="124.795" y="-773.603" type="line"/>
			<point x="-74.795" y="-786.397" type="line"/>
			<point x="-124.795" y="-6.397" type="line"/>
		</contour>
	</outline>
</glyph>
<glyph name="neg.-79" format="2">
	<advance width="50"/>
	<outline>
		<contour>
			<point x="99.75" y="7.896" type="line"/>
			<point x="149.75" y="-782.104" type="line"/>
			<point x="-99.75" y="-797.896" type="line"/>
			<point x="-149.75" y="-7.896" type="line"/>
		</contour>
	</outline>
</glyph>
<glyph name="neg.-8" format="2">
	<advance width="50"/>
	<outline>
		<contour>
			<point x="83.544" y="67.84" type="line"/>
			<point x="133.544" y="-12.16" type="line"/>
			<point x="-83.544" y="-147.84" type="line"/>
			<point x="-133.544" y="-67.84" type="line"/>
		</contour>
	</outline>
</glyph>
<glyph name="neg.-80" format="2">
	<advance width="50"/>
	<outline>
		<contour>
			<point x="102.751" y="7.984" type="line"/>
			<point x="152.751" y="-792.016" type="line"/>
			<point x="-102.751" y="-807.984" type="line"/>
			<point x="-152.751" y="-7.984" type="line"/>
		</contour>
	</outline>
</glyph>
<glyph name="neg.-82" format="2">
	<advance width="50"/>
	<outline>
		<contour>
			<point x="99.768" y="7.608" type="line"/>
			<point x="149.768" y="-812.392" type="line"/>
			<point x="-99.768" y="-827.608" type="line"/>
			<point x="-149.768" y="-7.608" type="line"/>
		</contour>
	</outline>
</glyph>
<glyph name="neg.-83" format="2">
	<advance width="50"/>
	<outline>
		<contour>
			<point x="99.774" y="7.516" type="line"/>
			<point x="149.774" y="-822.484" type="line"/>
			<point x="-99.774" y="-837.516" type="line"/>
			<point x="-149.774" y="-7.516" type="line"/>
		</contour>
	</outline>
</glyph>
<glyph name="neg.-84" format="2">
	<advance width="50"/>
	<outline>
		<contour>
			<point x="102.774" y="7.606" type="line"/>
			<point x="152.774" y="-832.394" type="line"/>
			<point x="-102.774" y="-847.606" type="line"/>
			<point x="-152.774" y="-7.606" type="line"/>
		</contour>
	</outline>
</glyph>
<glyph name="neg.-86" format="2">
	<advance width="50"/>
	<outline>
		<contour>
			<point x="74.831" y="5.804" type="line"/>
			<point x="124.831" y="-854.196" type="line"/>
			<point x="-74.831" y="-865.804" type="line"/>
			<point x="-124.831" y="-5.804" type="line"/>
		</contour>
	</outline>
</glyph>
<glyph name="neg.-87" format="2">
	<advance width="50"/>
	<outline>
		<contour>
			<point x="99.794" y="7.172" type="line"/>
			<point x="149.794" y="-862.828" type="line"/>
			<point x="-99.794" y="-877.172" type="line"/>
			<point x="-149.794" y="-7.172" type="line"/>
		</contour>
	</outline>
</glyph>
<glyph name="neg.-88" format="2">
	<advance width="50"/>
	<outline>
		<contour>
			<point x="102.794" y="7.261" type="line"/>
			<point x="152.794" y="-872.739" type="line"/>
			<point x="-102.794" y="-887.261" type="line"/>
			<point x="-152.794" y="-7.261" type="line"/>
		</contour>
	</outline>
</glyph>
<glyph name="neg.-89" format="2">
	<advance width="50"/>
	<outline>
		<contour>
			<point x="99.803" y="7.011" type="line"/>
			<point x="149.803" y="-882.989" type="line"/>
			<point x="-99.803" y="-897.011" type="line"/>
			<point x="-149.803" y="-7.011" type="line"/>
		</contour>
	</outline>
</glyph>
<glyph name="neg.-9" format="2">
	<advance width="50"/>
	<outline>
		<contour>
			<point x="84.27" y="60.705" type="line"/>
			<point x="134.27" y="-29.295" type="line"/>
			<point x="-84.27" y="-150.705" type="line"/>
			<point x="-134.27" y="-60.705" type="line"/>
		</contour>
	</outline>
</glyph>
<glyph name="neg.-90" format="2">
	<advance width="50"/>
	<outline>
		<contour>
			<point x="74.846" y="5.547" type="line"/>
			<point x="124.846" y="-894.453" type="line"/>
			<point x="-74.846" y="-905.547" type="line"/>
			<point x="-124.846" y="-5.547" type="line"/>
		</contour>
	</outline>
</glyph>
<glyph name="neg.-91" format="2">
	<advance width="50"/>
	<outline>
		<contour>
			<point x="102.807" y="7.022" type="line"/>
			<point x="152.807" y="-902.978" type="line"/>
			<point x="-102.807" y="-917.022" type="line"/>
			<point x="-152.807" y="-7.022" type="line"/>
		</contour>
	</outline>
</glyph>
<glyph name="neg.-92" format="2">
	<advance width="50"/>
	<outline>
		<contour>
			<point x="99.816" y="6.783" type="line"/>
			<point x="149.816" y="-913.217" type="line"/>
			<point x="-99.816" y="-926.783" type="line"/>
			<point x="-149.816" y="-6.783" type="line"/>
		</contour>
	</outline>
</glyph>
<glyph name="neg.-94" format="2">
	<advance width="50"/>
	<outline>
		<contour>
			<point x="74.859" y="5.312" type="line"/>
			<point x="124.859" y="-934.688" type="line"/>
			<point x="-74.859" y="-945.312" type="line"/>
			<point x="-124.859" y="-5.312" type="line"/>
		</contour>
	</outline>
</glyph>
<glyph name="neg.-95" format="2">
	<advance width="50"/>
	<outline>
		<contour>
			<point x="99.827" y="6.57" type="line"/>
			<point x="149.827" y="-943.43" type="line"/>
			<point x="-99.827" y="-956.57" type="line"/>
			<point x="-149.827" y="-6.57" type="line"/>
		</contour>
	</outline>
</glyph>
<glyph name="neg.-96" format="2">
	<advance width="50"/>
	<outline>
		<contour>
			<point x="74.865" y="5.201" type="line"/>
			<point x="124.865" y="-954.799" type="line"/>
			<point x="-74.865" y="-965.201" type="line"/>
			<point x="-124.865" y="-5.201" type="line"/>
		</contour>
	</outline>
</glyph>
<glyph name="neg.-98" format="2">
	<advance width="50"/>
	<outline>
		<contour>
			<point x="99.838" y="6.369" type="line"/>
			<point x="149.838" y="-973.631" type="line"/>
			<point x="-99.838" y="-986.369" type="line"/>
			<point x="-149.838" y="-6.369" type="line"/>
		</contour>
	</outline>
</glyph>
<glyph name="neg.-99" format="2">
	<advance width="50"/>
	<outline>
		<contour>
			<point x="102.837" y="6.456" type="line"/>
			<point x="152.837" y="-983.544" type="line"/>
			<point x="-102.837" y="-996.456" type="line"/>
			<point x="-152.837" y="-6.456" type="line"/>
		</contour>
	</outline>
</glyph>
<glyph name="point" format="2">
	<outline>
		<contour>
			<point x="-100" y="-55"/>
			<point x="-100" y="0" type="curve" smooth="yes"/>
			<point x="-100" y="55"/>
			<point x="-55" y="100"/>
			<point x="0" y="100" type="curve" smooth="yes"/>
			<point x="55" y="100"/>
			<point x="100" y="55"/>
			<point x="100" y="0" type="curve" smooth="yes"/>
			<point x="100" y="-55"/>
			<point x="55" y="-100"/>
			<point x="0" y="-100" type="curve" smooth="yes"/>
			<point x="-55" y="-100"/>
		</contour>
	</outline>
</glyph>
<glyph name="pos.1" format="2">
	<advance width="50"/>
	<outline>
		<contour>
			<point x="-44.612" y="98.058" type="line"/>
			<point x="5.388" y="108.058" type="line"/>
			<point x="44.612" y="-88.058" type="line"/>
			<point x="-5.388" y="-98.058" type="line"/>
		</contour>
	</outline>
</glyph>
<glyph name="pos.10" format="2">
	<advance width="50"/>
	<outline>
		<contour>
			<point x="-136.803" y="55.902" type="line"/>
			<point x="-86.803" y="155.902" type="line"/>
			<point x="136.803" y="44.098" type="line"/>
			<point x="86.803" y="-55.902" type="line"/>
		</contour>
	</outline>
</glyph>
<glyph name="pos.100" format="2">
	<advance width="50"/>
	<outline>
		<contour>
			<point x="-149.844" y="6.242" type="line"/>
			<point x="-99.844" y="1006.242" type="line"/>
			<point x="149.844" y="993.758" type="line"/>
			<point x="99.844" y="-6.242" type="line"/>
		</contour>
	</outline>
</glyph>
<glyph name="pos.101" format="2">
	<advance width="50"/>
	<outline>
		<contour>
			<point x="-149.847" y="6.181" type="line"/>
			<point x="-99.847" y="1016.181" type="line"/>
			<point x="149.847" y="1003.819" type="line"/>
			<point x="99.847" y="-6.181" type="line"/>
		</contour>
	</outline>
</glyph>
<glyph name="pos.102" format="2">
	<advance width="50"/>
	<outline>
		<contour>
			<point x="-152.846" y="6.267" type="line"/>
			<point x="-102.846" y="1026.267" type="line"/>
			<point x="152.846" y="1013.733" type="line"/>
			<point x="102.846" y="-6.267" type="line"/>
		</contour>
	</outline>
</glyph>
<glyph name="pos.103" format="2">
	<advance width="50"/>
	<outline>
		<contour>
			<point x="-149.853" y="6.061" type="line"/>
			<point x="-99.853" y="1036.061" type="line"/>
			<point x="149.853" y="1023.939" type="line"/>
			<point x="99.853" y="-6.061" type="line"/>
		</contour>
	</outline>
</glyph>
<glyph name="pos.104" format="2">
	<advance width="50"/>
	<outline>
		<contour>
			<point x="-149.856" y="6.003" type="line"/>
			<point x="-99.856" y="1046.003" type="line"/>
			<point x="149.856" y="1033.997" type="line"/>
			<point x="99.856" y="-6.003" type="line"/>
		</contour>
	</outline>
</glyph>
<glyph name="pos.106" format="2">
	<advance width="50"/>
	<outline>
		<contour>
			<point x="-152.858" y="6.031" type="line"/>
			<point x="-102.858" y="1066.031" type="line"/>
			<point x="152.858" y="1053.969" type="line"/>
			<point x="102.858" y="-6.031" type="line"/>
		</contour>
	</outline>
</glyph>
<glyph name="pos.107" format="2">
	<advance width="50"/>
	<outline>
		<contour>
			<point x="-152.86" y="5.975" type="line"/>
			<point x="-102.86" y="1075.975" type="line"/>
			<point x="152.86" y="1064.025" type="line"/>
			<point x="102.86" y="-5.975" type="line"/>
		</contour>
	</outline>
</glyph>
<glyph name="pos.108" format="2">
	<advance width="50"/>
	<outline>
		<contour>
			<point x="-124.893" y="4.625" type="line"/>
			<point x="-74.893" y="1084.625" type="line"/>
			<point x="124.893" y="1075.375" type="line"/>
			<point x="74.893" y="-4.625" type="line"/>
		</contour>
	</outline>
</glyph>
<glyph name="pos.109" format="2">
	<advance width="50"/>
	<outline>
		<contour>
			<point x="-152.866" y="5.865" type="line"/>
			<point x="-102.866" y="1095.865" type="line"/>
			<point x="152.866" y="1084.135" type="line"/>
			<point x="102.866" y="-5.865" type="line"/>
		</contour>
	</outline>
</glyph>
<glyph name="pos.11" format="2">
	<advance width="50"/>
	<outline>
		<contour>
			<point x="-138.796" y="51.725" type="line"/>
			<point x="-88.796" y="161.725" type="line"/>
			<point x="138.796" y="58.275" type="line"/>
			<point x="88.796" y="-51.725" type="line"/>
		</contour>
	</outline>
</glyph>
<glyph name="pos.110" format="2">
	<advance width="50"/>
	<outline>
		<contour>
			<point x="-152.868" y="5.812" type="line"/>
			<point x="-102.868" y="1105.812" type="line"/>
			<point x="152.868" y="1094.188" type="line"/>
			<point x="102.868" y="-5.812" type="line"/>
		</contour>
	</outline>
</glyph>
<glyph name="pos.111" format="2">
	<advance width="50"/>
	<outline>
		<contour>
			<point x="-149.873" y="5.625" type="line"/>
			<point x="-99.873" y="1115.625" type="line"/>
			<point x="149.873" y="1104.375" type="line"/>
			<point x="99.873" y="-5.625" type="line"/>
		</contour>
	</outline>
</glyph>
<glyph name="pos.112" format="2">
	<advance width="50"/>
	<outline>
		<contour>
			<point x="-152.873" y="5.709" type="line"/>
			<point x="-102.873" y="1125.709" type="line"/>
			<point x="152.873" y="1114.291" type="line"/>
			<point x="102.873" y="-5.709" type="line"/>
		</contour>
	</outline>
</glyph>
<glyph name="pos.113" format="2">
	<advance width="50"/>
	<outline>
		<contour>
			<point x="-124.902" y="4.42" type="line"/>
			<point x="-74.902" y="1134.42" type="line"/>
			<point x="124.902" y="1125.58" type="line"/>
			<point x="74.902" y="-4.42" type="line"/>
		</contour>
	</outline>
</glyph>
<glyph name="pos.114" format="2">
	<advance width="50"/>
	<outline>
		<contour>
			<point x="-152.877" y="5.609" type="line"/>
			<point x="-102.877" y="1145.609" type="line"/>
			<point x="152.877" y="1134.391" type="line"/>
			<point x="102.877" y="-5.609" type="line"/>
		</contour>
	</outline>
</glyph>
<glyph name="pos.115" format="2">
	<advance width="50"/>
	<outline>
		<contour>
			<point x="-149.882" y="5.43" type="line"/>
			<point x="-99.882" y="1155.43" type="line"/>
			<point x="149.882" y="1144.57" type="line"/>
			<point x="99.882" y="-5.43" type="line"/>
		</contour>
	</outline>
</glyph>
<glyph name="pos.116" format="2">
	<advance width="50"/>
	<outline>
		<contour>
			<point x="-152.881" y="5.512" type="line"/>
			<point x="-102.881" y="1165.512" type="line"/>
			<point x="152.881" y="1154.488" type="line"/>
			<point x="102.881" y="-5.512" type="line"/>
		</contour>
	</outline>
</glyph>
<glyph name="pos.117" format="2">
	<advance width="50"/>
	<outline>
		<contour>
			<point x="-152.883" y="5.465" type="line"/>
			<point x="-102.883" y="1175.465" type="line"/>
			<point x="152.883" y="1164.535" type="line"/>
			<point x="102.883" y="-5.465" type="line"/>
		</contour>
	</outline>
</glyph>
<glyph name="pos.119" format="2">
	<advance width="50"/>
	<outline>
		<contour>
			<point x="-124.912" y="4.198" type="line"/>
			<point x="-74.912" y="1194.198" type="line"/>
			<point x="124.912" y="1185.802" type="line"/>
			<point x="74.912" y="-4.198" type="line"/>
		</contour>
	</outline>
</glyph>
<glyph name="pos.12" format="2">
	<advance width="50"/>
	<outline>
		<contour>
			<point x="-140.385" y="48.077" type="line"/>
			<point x="-90.385" y="168.077" type="line"/>
			<point x="140.385" y="71.923" type="line"/>
			<point x="90.385" y="-48.077" type="line"/>
		</contour>
	</outline>
</glyph>
<glyph name="pos.120" format="2">
	<advance width="50"/>
	<outline>
		<contour>
			<point x="-149.892" y="5.204" type="line"/>
			<point x="-99.892" y="1205.204" type="line"/>
			<point x="149.892" y="1194.796" type="line"/>
			<point x="99.892" y="-5.204" type="line"/>
		</contour>
	</outline>
</glyph>
<glyph name="pos.121" format="2">
	<advance width="50"/>
	<outline>
		<contour>
			<point x="-152.891" y="5.285" type="line"/>
			<point x="-102.891" y="1215.285" type="line"/>
			<point x="152.891" y="1204.715" type="line"/>
			<point x="102.891" y="-5.285" type="line"/>
		</contour>
	</outline>
</glyph>
<glyph name="pos.122" format="2">
	<advance width="50"/>
	<outline>
		<contour>
			<point x="-149.895" y="5.119" type="line"/>
			<point x="-99.895" y="1225.119" type="line"/>
			<point x="149.895" y="1214.881" type="line"/>
			<point x="99.895" y="-5.119" type="line"/>
		</contour>
	</outline>
</glyph>
<glyph name="pos.123" format="2">
	<advance width="50"/>
	<outline>
		<contour>
			<point x="-152.894" y="5.199" type="line"/>
			<point x="-102.894" y="1235.199" type="line"/>
			<point x="152.894" y="1224.801" type="line"/>
			<point x="102.894" y="-5.199" type="line"/>
		</contour>
	</outline>
</glyph>
<glyph name="pos.124" format="2">
	<advance width="50"/>
	<outline>
		<contour>
			<point x="-152.896" y="5.157" type="line"/>
			<point x="-102.896" y="1245.157" type="line"/>
			<point x="152.896" y="1234.843" type="line"/>
			<point x="102.896" y="-5.157" type="line"/>
		</contour>
	</outline>
</glyph>
<glyph name="pos.125" format="2">
	<advance width="50"/>
	<outline>
		<contour>
			<point x="-152.898" y="5.116" type="line"/>
			<point x="-102.898" y="1255.116" type="line"/>
			<point x="152.898" y="1244.884" type="line"/>
			<point x="102.898" y="-5.116" type="line"/>
		</contour>
	</outline>
</glyph>
<glyph name="pos.126" format="2">
	<advance width="50"/>
	<outline>
		<contour>
			<point x="-149.902" y="4.956" type="line"/>
			<point x="-99.902" y="1264.956" type="line"/>
			<point x="149.902" y="1255.044" type="line"/>
			<point x="99.902" y="-4.956" type="line"/>
		</contour>
	</outline>
</glyph>
<glyph name="pos.13" format="2">
	<advance width="50"/>
	<outline>
		<contour>
			<point x="-141.668" y="44.872" type="line"/>
			<point x="-91.668" y="174.872" type="line"/>
			<point x="141.668" y="85.128" type="line"/>
			<point x="91.668" y="-44.872" type="line"/>
		</contour>
	</outline>
</glyph>
<glyph name="pos.14" format="2">
	<advance width="50"/>
	<outline>
		<contour>
			<point x="-145.543" y="43.051" type="line"/>
			<point x="-95.543" y="183.051" type="line"/>
			<point x="145.543" y="96.949" type="line"/>
			<point x="95.543" y="-43.051" type="line"/>
		</contour>
	</outline>
</glyph>
<glyph name="pos.15" format="2">
	<advance width="50"/>
	<outline>
		<contour>
			<point x="-119.868" y="31.623" type="line"/>
			<point x="-69.868" y="181.623" type="line"/>
			<point x="119.868" y="118.377" type="line"/>
			<point x="69.868" y="-31.623" type="line"/>
		</contour>
	</outline>
</glyph>
<glyph name="pos.16" format="2">
	<advance width="50"/>
	<outline>
		<contour>
			<point x="-120.448" y="29.827" type="line"/>
			<point x="-70.448" y="189.827" type="line"/>
			<point x="120.448" y="130.173" type="line"/>
			<point x="70.448" y="-29.827" type="line"/>
		</contour>
	</outline>
</glyph>
<glyph name="pos.17" format="2">
	<advance width="50"/>
	<outline>
		<contour>
			<point x="-147.799" y="36.117" type="line"/>
			<point x="-97.799" y="206.117" type="line"/>
			<point x="147.799" y="133.883" type="line"/>
			<point x="97.799" y="-36.117" type="line"/>
		</contour>
	</outline>
</glyph>
<glyph name="pos.18" format="2">
	<advance width="50"/>
	<outline>
		<contour>
			<point x="-148.33" y="34.258" type="line"/>
			<point x="-98.33" y="214.258" type="line"/>
			<point x="148.33" y="145.742" type="line"/>
			<point x="98.33" y="-34.258" type="line"/>
		</contour>
	</outline>
</glyph>
<glyph name="pos.2" format="2">
	<advance width="50"/>
	<outline>
		<contour>
			<point x="-72.538" y="118.845" type="line"/>
			<point x="-22.538" y="138.845" type="line"/>
			<point x="72.538" y="-98.845" type="line"/>
			<point x="22.538" y="-118.845" type="line"/>
		</contour>
	</outline>
</glyph>
<glyph name="pos.20" format="2">
	<advance width="50"/>
	<outline>
		<contour>
			<point x="-146.268" y="30.317" type="line"/>
			<point x="-96.268" y="230.317" type="line"/>
			<point x="146.268" y="169.683" type="line"/>
			<point x="96.268" y="-30.317" type="line"/>
		</contour>
	</outline>
</glyph>
<glyph name="pos.21" format="2">
	<advance width="50"/>
	<outline>
		<contour>
			<point x="-149.519" y="29.647" type="line"/>
			<point x="-99.519" y="239.647" type="line"/>
			<point x="149.519" y="180.353" type="line"/>
			<point x="99.519" y="-29.647" type="line"/>
		</contour>
	</outline>
</glyph>
<glyph name="pos.22" format="2">
	<advance width="50"/>
	<outline>
		<contour>
			<point x="-149.817" y="28.368" type="line"/>
			<point x="-99.817" y="248.368" type="line"/>
			<point x="149.817" y="191.632" type="line"/>
			<point x="99.817" y="-28.368" type="line"/>
		</contour>
	</outline>
</glyph>
<glyph name="pos.25" format="2">
	<advance width="50"/>
	<outline>
		<contour>
			<point x="-147.573" y="24.515" type="line"/>
			<point x="-97.573" y="274.515" type="line"/>
			<point x="147.573" y="225.485" type="line"/>
			<point x="97.573" y="-24.515" type="line"/>
		</contour>
	</outline>
</glyph>
<glyph name="pos.26" format="2">
	<advance width="50"/>
	<outline>
		<contour>
			<point x="-147.751" y="23.606" type="line"/>
			<point x="-97.751" y="283.606" type="line"/>
			<point x="147.751" y="236.394" type="line"/>
			<point x="97.751" y="-23.606" type="line"/>
		</contour>
	</outline>
</glyph>
<glyph name="pos.27" format="2">
	<advance width="50"/>
	<outline>
		<contour>
			<point x="-123.328" y="18.209" type="line"/>
			<point x="-73.328" y="288.209" type="line"/>
			<point x="123.328" y="251.791" type="line"/>
			<point x="73.328" y="-18.209" type="line"/>
		</contour>
	</outline>
</glyph>
<glyph name="pos.28" format="2">
	<advance width="50"/>
	<outline>
		<contour>
			<point x="-148.053" y="21.974" type="line"/>
			<point x="-98.053" y="301.974" type="line"/>
			<point x="148.053" y="258.026" type="line"/>
			<point x="98.053" y="-21.974" type="line"/>
		</contour>
	</outline>
</glyph>
<glyph name="pos.3" format="2">
	<advance width="50"/>
	<outline>
		<contour>
			<point x="-90.855" y="109.759" type="line"/>
			<point x="-40.855" y="139.759" type="line"/>
			<point x="90.855" y="-79.759" type="line"/>
			<point x="40.855" y="-109.759" type="line"/>
		</contour>
	</outline>
</glyph>
<glyph name="pos.30" format="2">
	<advance width="50"/>
	<outline>
		<contour>
			<point x="-151.258" y="21.043" type="line"/>
			<point x="-101.258" y="321.043" type="line"/>
			<point x="151.258" y="278.957" type="line"/>
			<point x="101.258" y="-21.043" type="line"/>
		</contour>
	</outline>
</glyph>
<glyph name="pos.31" format="2">
	<advance width="50"/>
	<outline>
		<contour>
			<point x="-148.405" y="19.904" type="line"/>
			<point x="-98.405" y="329.904" type="line"/>
			<point x="148.405" y="290.096" type="line"/>
			<point x="98.405" y="-19.904" type="line"/>
		</contour>
	</outline>
</glyph>
<glyph name="pos.32" format="2">
	<advance width="50"/>
	<outline>
		<contour>
			<point x="-151.466" y="19.76" type="line"/>
			<point x="-101.466" y="339.76" type="line"/>
			<point x="151.466" y="300.24" type="line"/>
			<point x="101.466" y="-19.76" type="line"/>
		</contour>
	</outline>
</glyph>
<glyph name="pos.34" format="2">
	<advance width="50"/>
	<outline>
		<contour>
			<point x="-148.67" y="18.187" type="line"/>
			<point x="-98.67" y="358.187" type="line"/>
			<point x="148.67" y="321.813" type="line"/>
			<point x="98.67" y="-18.187" type="line"/>
		</contour>
	</outline>
</glyph>
<glyph name="pos.35" format="2">
	<advance width="50"/>
	<outline>
		<contour>
			<point x="-123.995" y="14.142" type="line"/>
			<point x="-73.995" y="364.142" type="line"/>
			<point x="123.995" y="335.858" type="line"/>
			<point x="73.995" y="-14.142" type="line"/>
		</contour>
	</outline>
</glyph>
<glyph name="pos.36" format="2">
	<advance width="50"/>
	<outline>
		<contour>
			<point x="-148.812" y="17.196" type="line"/>
			<point x="-98.812" y="377.196" type="line"/>
			<point x="148.812" y="342.804" type="line"/>
			<point x="98.812" y="-17.196" type="line"/>
		</contour>
	</outline>
</glyph>
<glyph name="pos.37" format="2">
	<advance width="50"/>
	<outline>
		<contour>
			<point x="-151.847" y="17.141" type="line"/>
			<point x="-101.847" y="387.141" type="line"/>
			<point x="151.847" y="352.859" type="line"/>
			<point x="101.847" y="-17.141" type="line"/>
		</contour>
	</outline>
</glyph>
<glyph name="pos.38" format="2">
	<advance width="50"/>
	<outline>
		<contour>
			<point x="-151.906" y="16.698" type="line"/>
			<point x="-101.906" y="396.698" type="line"/>
			<point x="151.906" y="363.302" type="line"/>
			<point x="101.906" y="-16.698" type="line"/>
		</contour>
	</outline>
</glyph>
<glyph name="pos.39" format="2">
	<advance width="50"/>
	<outline>
		<contour>
			<point x="-151.961" y="16.277" type="line"/>
			<point x="-101.961" y="406.277" type="line"/>
			<point x="151.961" y="373.723" type="line"/>
			<point x="101.961" y="-16.277" type="line"/>
		</contour>
	</outline>
</glyph>
<glyph name="pos.4" format="2">
	<advance width="50"/>
	<outline>
		<contour>
			<point x="-103.087" y="97.609" type="line"/>
			<point x="-53.087" y="137.609" type="line"/>
			<point x="103.087" y="-57.609" type="line"/>
			<point x="53.087" y="-97.609" type="line"/>
		</contour>
	</outline>
</glyph>
<glyph name="pos.41" format="2">
	<advance width="50"/>
	<outline>
		<contour>
			<point x="-124.265" y="12.105" type="line"/>
			<point x="-74.265" y="422.105" type="line"/>
			<point x="124.265" y="397.895" type="line"/>
			<point x="74.265" y="-12.105" type="line"/>
		</contour>
	</outline>
</glyph>
<glyph name="pos.42" format="2">
	<advance width="50"/>
	<outline>
		<contour>
			<point x="-152.102" y="15.131" type="line"/>
			<point x="-102.102" y="435.131" type="line"/>
			<point x="152.102" y="404.869" type="line"/>
			<point x="102.102" y="-15.131" type="line"/>
		</contour>
	</outline>
</glyph>
<glyph name="pos.43" format="2">
	<advance width="50"/>
	<outline>
		<contour>
			<point x="-124.331" y="11.55" type="line"/>
			<point x="-74.331" y="441.55" type="line"/>
			<point x="124.331" y="418.45" type="line"/>
			<point x="74.331" y="-11.55" type="line"/>
		</contour>
	</outline>
</glyph>
<glyph name="pos.44" format="2">
	<advance width="50"/>
	<outline>
		<contour>
			<point x="-152.181" y="14.452" type="line"/>
			<point x="-102.181" y="454.452" type="line"/>
			<point x="152.181" y="425.548" type="line"/>
			<point x="102.181" y="-14.452" type="line"/>
		</contour>
	</outline>
</glyph>
<glyph name="pos.45" format="2">
	<advance width="50"/>
	<outline>
		<contour>
			<point x="-149.235" y="13.804" type="line"/>
			<point x="-99.235" y="463.804" type="line"/>
			<point x="149.235" y="436.196" type="line"/>
			<point x="99.235" y="-13.804" type="line"/>
		</contour>
	</outline>
</glyph>
<glyph name="pos.46" format="2">
	<advance width="50"/>
	<outline>
		<contour>
			<point x="-149.268" y="13.507" type="line"/>
			<point x="-99.268" y="473.507" type="line"/>
			<point x="149.268" y="446.493" type="line"/>
			<point x="99.268" y="-13.507" type="line"/>
		</contour>
	</outline>
</glyph>
<glyph name="pos.47" format="2">
	<advance width="50"/>
	<outline>
		<contour>
			<point x="-124.439" y="10.579" type="line"/>
			<point x="-74.439" y="480.579" type="line"/>
			<point x="124.439" y="459.421" type="line"/>
			<point x="74.439" y="-10.579" type="line"/>
		</contour>
	</outline>
</glyph>
<glyph name="pos.48" format="2">
	<advance width="50"/>
	<outline>
		<contour>
			<point x="-152.311" y="13.262" type="line"/>
			<point x="-102.311" y="493.262" type="line"/>
			<point x="152.311" y="466.738" type="line"/>
			<point x="102.311" y="-13.262" type="line"/>
		</contour>
	</outline>
</glyph>
<glyph name="pos.49" format="2">
	<advance width="50"/>
	<outline>
		<contour>
			<point x="-152.339" y="12.994" type="line"/>
			<point x="-102.339" y="502.994" type="line"/>
			<point x="152.339" y="477.006" type="line"/>
			<point x="102.339" y="-12.994" type="line"/>
		</contour>
	</outline>
</glyph>
<glyph name="pos.5" format="2">
	<advance width="50"/>
	<outline>
		<contour>
			<point x="-115.51" y="90.51" type="line"/>
			<point x="-65.51" y="140.51" type="line"/>
			<point x="115.51" y="-40.51" type="line"/>
			<point x="65.51" y="-90.51" type="line"/>
		</contour>
	</outline>
</glyph>
<glyph name="pos.50" format="2">
	<advance width="50"/>
	<outline>
		<contour>
			<point x="-149.38" y="12.438" type="line"/>
			<point x="-99.38" y="512.438" type="line"/>
			<point x="149.38" y="487.562" type="line"/>
			<point x="99.38" y="-12.438" type="line"/>
		</contour>
	</outline>
</glyph>
<glyph name="pos.51" format="2">
	<advance width="50"/>
	<outline>
		<contour>
			<point x="-149.404" y="12.196" type="line"/>
			<point x="-99.404" y="522.196" type="line"/>
			<point x="149.404" y="497.804" type="line"/>
			<point x="99.404" y="-12.196" type="line"/>
		</contour>
	</outline>
</glyph>
<glyph name="pos.54" format="2">
	<advance width="50"/>
	<outline>
		<contour>
			<point x="-149.468" y="11.525" type="line"/>
			<point x="-99.468" y="551.525" type="line"/>
			<point x="149.468" y="528.475" type="line"/>
			<point x="99.468" y="-11.525" type="line"/>
		</contour>
	</outline>
</glyph>
<glyph name="pos.55" format="2">
	<advance width="50"/>
	<outline>
		<contour>
			<point x="-149.487" y="11.317" type="line"/>
			<point x="-99.487" y="561.317" type="line"/>
			<point x="149.487" y="538.683" type="line"/>
			<point x="99.487" y="-11.317" type="line"/>
		</contour>
	</outline>
</glyph>
<glyph name="pos.56" format="2">
	<advance width="50"/>
	<outline>
		<contour>
			<point x="-149.505" y="11.116" type="line"/>
			<point x="-99.505" y="571.116" type="line"/>
			<point x="149.505" y="548.884" type="line"/>
			<point x="99.505" y="-11.116" type="line"/>
		</contour>
	</outline>
</glyph>
<glyph name="pos.57" format="2">
	<advance width="50"/>
	<outline>
		<contour>
			<point x="-149.522" y="10.923" type="line"/>
			<point x="-99.522" y="580.923" type="line"/>
			<point x="149.522" y="559.077" type="line"/>
			<point x="99.522" y="-10.923" type="line"/>
		</contour>
	</outline>
</glyph>
<glyph name="pos.58" format="2">
	<advance width="50"/>
	<outline>
		<contour>
			<point x="-152.527" y="10.994" type="line"/>
			<point x="-102.527" y="590.994" type="line"/>
			<point x="152.527" y="569.006" type="line"/>
			<point x="102.527" y="-10.994" type="line"/>
		</contour>
	</outline>
</glyph>
<glyph name="pos.59" format="2">
	<advance width="50"/>
	<outline>
		<contour>
			<point x="-149.554" y="10.555" type="line"/>
			<point x="-99.554" y="600.555" type="line"/>
			<point x="149.554" y="579.445" type="line"/>
			<point x="99.554" y="-10.555" type="line"/>
		</contour>
	</outline>
</glyph>
<glyph name="pos.6" format="2">
	<advance width="50"/>
	<outline>
		<contour>
			<point x="-121.028" y="80.023" type="line"/>
			<point x="-71.028" y="140.023" type="line"/>
			<point x="121.028" y="-20.023" type="line"/>
			<point x="71.028" y="-80.023" type="line"/>
		</contour>
	</outline>
</glyph>
<glyph name="pos.65" format="2">
	<advance width="50"/>
	<outline>
		<contour>
			<point x="-152.623" y="9.817" type="line"/>
			<point x="-102.623" y="659.817" type="line"/>
			<point x="152.623" y="640.183" type="line"/>
			<point x="102.623" y="-9.817" type="line"/>
		</contour>
	</outline>
</glyph>
<glyph name="pos.66" format="2">
	<advance width="50"/>
	<outline>
		<contour>
			<point x="-152.634" y="9.669" type="line"/>
			<point x="-102.634" y="669.669" type="line"/>
			<point x="152.634" y="650.331" type="line"/>
			<point x="102.634" y="-9.669" type="line"/>
		</contour>
	</outline>
</glyph>
<glyph name="pos.67" format="2">
	<advance width="50"/>
	<outline>
		<contour>
			<point x="-124.723" y="7.442" type="line"/>
			<point x="-74.723" y="677.442" type="line"/>
			<point x="124.723" y="662.558" type="line"/>
			<point x="74.723" y="-7.442" type="line"/>
		</contour>
	</outline>
</glyph>
<glyph name="pos.68" format="2">
	<advance width="50"/>
	<outline>
		<contour>
			<point x="-149.663" y="9.166" type="line"/>
			<point x="-99.663" y="689.166" type="line"/>
			<point x="149.663" y="670.834" type="line"/>
			<point x="99.663" y="-9.166" type="line"/>
		</contour>
	</outline>
</glyph>
<glyph name="pos.69" format="2">
	<advance width="50"/>
	<outline>
		<contour>
			<point x="-149.673" y="9.034" type="line"/>
			<point x="-99.673" y="699.034" type="line"/>
			<point x="149.673" y="680.966" type="line"/>
			<point x="99.673" y="-9.034" type="line"/>
		</contour>
	</outline>
</glyph>
<glyph name="pos.71" format="2">
	<advance width="50"/>
	<outline>
		<contour>
			<point x="-149.691" y="8.781" type="line"/>
			<point x="-99.691" y="718.781" type="line"/>
			<point x="149.691" y="701.219" type="line"/>
			<point x="99.691" y="-8.781" type="line"/>
		</contour>
	</outline>
</glyph>
<glyph name="pos.72" format="2">
	<advance width="50"/>
	<outline>
		<contour>
			<point x="-149.7" y="8.66" type="line"/>
			<point x="-99.7" y="728.66" type="line"/>
			<point x="149.7" y="711.34" type="line"/>
			<point x="99.7" y="-8.66" type="line"/>
		</contour>
	</outline>
</glyph>
<glyph name="pos.73" format="2">
	<advance width="50"/>
	<outline>
		<contour>
			<point x="-149.708" y="8.542" type="line"/>
			<point x="-99.708" y="738.542" type="line"/>
			<point x="149.708" y="721.458" type="line"/>
			<point x="99.708" y="-8.542" type="line"/>
		</contour>
	</outline>
</glyph>
<glyph name="pos.74" format="2">
	<advance width="50"/>
	<outline>
		<contour>
			<point x="-124.773" y="6.741" type="line"/>
			<point x="-74.773" y="746.741" type="line"/>
			<point x="124.773" y="733.259" type="line"/>
			<point x="74.773" y="-6.741" type="line"/>
		</contour>
	</outline>
</glyph>
<glyph name="pos.75" format="2">
	<advance width="50"/>
	<outline>
		<contour>
			<point x="-149.723" y="8.315" type="line"/>
			<point x="-99.723" y="758.315" type="line"/>
			<point x="149.723" y="741.685" type="line"/>
			<point x="99.723" y="-8.315" type="line"/>
		</contour>
	</outline>
</glyph>
<glyph name="pos.76" format="2">
	<advance width="50"/>
	<outline>
		<contour>
			<point x="-124.784" y="6.565" type="line"/>
			<point x="-74.784" y="766.565" type="line"/>
			<point x="124.784" y="753.435" type="line"/>
			<point x="74.784" y="-6.565" type="line"/>
		</contour>
	</outline>
</glyph>
<glyph name="pos.77" format="2">
	<advance width="50"/>
	<outline>
		<contour>
			<point x="-149.737" y="8.1" type="line"/>
			<point x="-99.737" y="778.1" type="line"/>
			<point x="149.737" y="761.9" type="line"/>
			<point x="99.737" y="-8.1" type="line"/>
		</contour>
	</outline>
</glyph>
<glyph name="pos.78" format="2">
	<advance width="50"/>
	<outline>
		<contour>
			<point x="-149.744" y="7.996" type="line"/>
			<point x="-99.744" y="787.996" type="line"/>
			<point x="149.744" y="772.004" type="line"/>
			<point x="99.744" y="-7.996" type="line"/>
		</contour>
	</outline>
</glyph>
<glyph name="pos.79" format="2">
	<advance width="50"/>
	<outline>
		<contour>
			<point x="-152.744" y="8.085" type="line"/>
			<point x="-102.744" y="798.085" type="line"/>
			<point x="152.744" y="781.915" type="line"/>
			<point x="102.744" y="-8.085" type="line"/>
		</contour>
	</outline>
</glyph>
<glyph name="pos.8" format="2">
	<advance width="50"/>
	<outline>
		<contour>
			<point x="-109.8" y="52" type="line"/>
			<point x="-59.8" y="132" type="line"/>
			<point x="109.8" y="27" type="line"/>
			<point x="59.8" y="-52" type="line"/>
		</contour>
	</outline>
</glyph>
<glyph name="pos.80" format="2">
	<advance width="50"/>
	<outline>
		<contour>
			<point x="-149.757" y="7.797" type="line"/>
			<point x="-99.757" y="807.797" type="line"/>
			<point x="149.757" y="792.203" type="line"/>
			<point x="99.757" y="-7.797" type="line"/>
		</contour>
	</outline>
</glyph>
<glyph name="pos.81" format="2">
	<advance width="50"/>
	<outline>
		<contour>
			<point x="-152.757" y="7.886" type="line"/>
			<point x="-102.757" y="817.886" type="line"/>
			<point x="152.757" y="802.114" type="line"/>
			<point x="102.757" y="-7.886" type="line"/>
		</contour>
	</outline>
</glyph>
<glyph name="pos.82" format="2">
	<advance width="50"/>
	<outline>
		<contour>
			<point x="-152.763" y="7.79" type="line"/>
			<point x="-102.763" y="827.79" type="line"/>
			<point x="152.763" y="812.21" type="line"/>
			<point x="102.763" y="-7.79" type="line"/>
		</contour>
	</outline>
</glyph>
<glyph name="pos.83" format="2">
	<advance width="50"/>
	<outline>
		<contour>
			<point x="-124.819" y="6.013" type="line"/>
			<point x="-74.819" y="836.013" type="line"/>
			<point x="124.819" y="823.987" type="line"/>
			<point x="74.819" y="-6.013" type="line"/>
		</contour>
	</outline>
</glyph>
<glyph name="pos.85" format="2">
	<advance width="50"/>
	<outline>
		<contour>
			<point x="-149.784" y="7.34" type="line"/>
			<point x="-99.784" y="857.34" type="line"/>
			<point x="149.784" y="842.66" type="line"/>
			<point x="99.784" y="-7.34" type="line"/>
		</contour>
	</outline>
</glyph>
<glyph name="pos.86" format="2">
	<advance width="50"/>
	<outline>
		<contour>
			<point x="-152.784" y="7.429" type="line"/>
			<point x="-102.784" y="867.429" type="line"/>
			<point x="152.784" y="852.571" type="line"/>
			<point x="102.784" y="-7.429" type="line"/>
		</contour>
	</outline>
</glyph>
<glyph name="pos.87" format="2">
	<advance width="50"/>
	<outline>
		<contour>
			<point x="-152.789" y="7.344" type="line"/>
			<point x="-102.789" y="877.344" type="line"/>
			<point x="152.789" y="862.656" type="line"/>
			<point x="102.789" y="-7.344" type="line"/>
		</contour>
	</outline>
</glyph>
<glyph name="pos.89" format="2">
	<advance width="50"/>
	<outline>
		<contour>
			<point x="-124.843" y="5.609" type="line"/>
			<point x="-74.843" y="895.609" type="line"/>
			<point x="124.843" y="884.391" type="line"/>
			<point x="74.843" y="-5.609" type="line"/>
		</contour>
	</outline>
</glyph>
<glyph name="pos.9" format="2">
	<advance width="50"/>
	<outline>
		<contour>
			<point x="-136.892" y="62.162" type="line"/>
			<point x="-86.892" y="152.162" type="line"/>
			<point x="136.892" y="27.838" type="line"/>
			<point x="86.892" y="-62.162" type="line"/>
		</contour>
	</outline>
</glyph>
<glyph name="pos.91" format="2">
	<advance width="50"/>
	<outline>
		<contour>
			<point x="-149.812" y="6.858" type="line"/>
			<point x="-99.812" y="916.858" type="line"/>
			<point x="149.812" y="903.142" type="line"/>
			<point x="99.812" y="-6.858" type="line"/>
		</contour>
	</outline>
</glyph>
<glyph name="pos.92" format="2">
	<advance width="50"/>
	<outline>
		<contour>
			<point x="-152.811" y="6.946" type="line"/>
			<point x="-102.811" y="926.946" type="line"/>
			<point x="152.811" y="913.054" type="line"/>
			<point x="102.811" y="-6.946" type="line"/>
		</contour>
	</outline>
</glyph>
<glyph name="pos.93" format="2">
	<advance width="50"/>
	<outline>
		<contour>
			<point x="-149.82" y="6.711" type="line"/>
			<point x="-99.82" y="936.711" type="line"/>
			<point x="149.82" y="923.289" type="line"/>
			<point x="99.82" y="-6.711" type="line"/>
		</contour>
	</outline>
</glyph>
<glyph name="pos.95" format="2">
	<advance width="50"/>
	<outline>
		<contour>
			<point x="-152.823" y="6.728" type="line"/>
			<point x="-102.823" y="956.728" type="line"/>
			<point x="152.823" y="943.272" type="line"/>
			<point x="102.823" y="-6.728" type="line"/>
		</contour>
	</outline>
</glyph>
<glyph name="pos.96" format="2">
	<advance width="50"/>
	<outline>
		<contour>
			<point x="-149.831" y="6.502" type="line"/>
			<point x="-99.831" y="966.502" type="line"/>
			<point x="149.831" y="953.498" type="line"/>
			<point x="99.831" y="-6.502" type="line"/>
		</contour>
	</outline>
</glyph>
<glyph name="pos.97" format="2">
	<advance width="50"/>
	<outline>
		<contour>
			<point x="-149.834" y="6.435" type="line"/>
			<point x="-99.834" y="976.435" type="line"/>
			<point x="149.834" y="963.565" type="line"/>
			<point x="99.834" y="-6.435" type="line"/>
		</contour>
	</outline>
</glyph>
<glyph name="pos.98" format="2">
	<advance width="50"/>
	<outline>
		<contour>
			<point x="-152.834" y="6.522" type="line"/>
			<point x="-102.834" y="986.522" type="line"/>
			<point x="152.834" y="973.478" type="line"/>
			<point x="102.834" y="-6.522" type="line"/>
		</contour>
	</outline>
</glyph>
<glyph name="to0" format="2">
	<advance width="50"/>
	<outline>
		<contour>
			<point x="-25" y="202" type="line"/>
			<point x="25" y="202" type="line"/>
			<point x="25" y="-202" type="line"/>
			<point x="-25" y="-202" type="line"/>
		</contour>
	</outline>
</glyph>
<glyph name="to-1" format="2">
	<advance width="50"/>
	<outline>
		<contour>
			<point x="14.223" y="196.116" type="line"/>
			<point x="64.223" y="186.116" type="line"/>
			<point x="-14.223" y="-206.116" type="line"/>
			<point x="-64.223" y="-196.116" type="line"/>
		</contour>
	</outline>
</glyph>
<glyph name="to-10" format="2">
	<advance width="50"/>
	<outline>
		<contour>
			<point x="155.674" y="90.337" type="line"/>
			<point x="205.674" y="-9.663" type="line"/>
			<point x="-155.674" y="-190.337" type="line"/>
			<point x="-205.674" y="-90.337" type="line"/>
		</contour>
	</outline>
</glyph>
<glyph name="to-100" format="2">
	<advance width="50"/>
	<outline>
		<contour>
			<point x="174.75" y="9.988" type="line"/>
			<point x="224.75" y="-990.012" type="line"/>
			<point x="-174.75" y="-1009.988" type="line"/>
			<point x="-224.75" y="-9.988" type="line"/>
		</contour>
	</outline>
</glyph>
<glyph name="to-101" format="2">
	<advance width="50"/>
	<outline>
		<contour>
			<point x="174.755" y="9.889" type="line"/>
			<point x="224.755" y="-1000.111" type="line"/>
			<point x="-174.755" y="-1019.889" type="line"/>
			<point x="-224.755" y="-9.889" type="line"/>
		</contour>
	</outline>
</glyph>
<glyph name="to-102" format="2">
	<advance width="50"/>
	<outline>
		<contour>
			<point x="176.758" y="9.89" type="line"/>
			<point x="226.758" y="-1010.11" type="line"/>
			<point x="-176.758" y="-1029.89" type="line"/>
			<point x="-226.758" y="-9.89" type="line"/>
		</contour>
	</outline>
</glyph>
<glyph name="to-103" format="2">
	<advance width="50"/>
	<outline>
		<contour>
			<point x="174.765" y="9.697" type="line"/>
			<point x="224.765" y="-1020.303" type="line"/>
			<point x="-174.765" y="-1039.697" type="line"/>
			<point x="-224.765" y="-9.697" type="line"/>
		</contour>
	</outline>
</glyph>
<glyph name="to-104" format="2">
	<advance width="50"/>
	<outline>
		<contour>
			<point x="176.767" y="9.7" type="line"/>
			<point x="226.767" y="-1030.3" type="line"/>
			<point x="-176.767" y="-1049.7" type="line"/>
			<point x="-226.767" y="-9.7" type="line"/>
		</contour>
	</outline>
</glyph>
<glyph name="to-106" format="2">
	<advance width="50"/>
	<outline>
		<contour>
			<point x="174.778" y="9.423" type="line"/>
			<point x="224.778" y="-1050.577" type="line"/>
			<point x="-174.778" y="-1069.423" type="line"/>
			<point x="-224.778" y="-9.423" type="line"/>
		</contour>
	</outline>
</glyph>
<glyph name="to-107" format="2">
	<advance width="50"/>
	<outline>
		<contour>
			<point x="174.782" y="9.336" type="line"/>
			<point x="224.782" y="-1060.664" type="line"/>
			<point x="-174.782" y="-1079.336" type="line"/>
			<point x="-224.782" y="-9.336" type="line"/>
		</contour>
	</outline>
</glyph>
<glyph name="to-108" format="2">
	<advance width="50"/>
	<outline>
		<contour>
			<point x="176.784" y="9.342" type="line"/>
			<point x="226.784" y="-1070.658" type="line"/>
			<point x="-176.784" y="-1089.342" type="line"/>
			<point x="-226.784" y="-9.342" type="line"/>
		</contour>
	</outline>
</glyph>
<glyph name="to-109" format="2">
	<advance width="50"/>
	<outline>
		<contour>
			<point x="74.895" y="4.582" type="line"/>
			<point x="124.895" y="-1085.418" type="line"/>
			<point x="-74.895" y="-1094.582" type="line"/>
			<point x="-124.895" y="-4.582" type="line"/>
		</contour>
	</outline>
</glyph>
<glyph name="to-11" format="2">
	<advance width="50"/>
	<outline>
		<contour>
			<point x="158.894" y="83.588" type="line"/>
			<point x="208.894" y="-26.412" type="line"/>
			<point x="-158.894" y="-193.588" type="line"/>
			<point x="-208.894" y="-83.588" type="line"/>
		</contour>
	</outline>
</glyph>
<glyph name="to-110" format="2">
	<advance width="50"/>
	<outline>
		<contour>
			<point x="176.792" y="9.172" type="line"/>
			<point x="226.792" y="-1090.828" type="line"/>
			<point x="-176.792" y="-1109.172" type="line"/>
			<point x="-226.792" y="-9.172" type="line"/>
		</contour>
	</outline>
</glyph>
<glyph name="to-111" format="2">
	<advance width="50"/>
	<outline>
		<contour>
			<point x="74.899" y="4.5" type="line"/>
			<point x="124.899" y="-1105.5" type="line"/>
			<point x="-74.899" y="-1114.5" type="line"/>
			<point x="-124.899" y="-4.5" type="line"/>
		</contour>
	</outline>
</glyph>
<glyph name="to-112" format="2">
	<advance width="50"/>
	<outline>
		<contour>
			<point x="174.801" y="8.92" type="line"/>
			<point x="224.801" y="-1111.08" type="line"/>
			<point x="-174.801" y="-1128.92" type="line"/>
			<point x="-224.801" y="-8.92" type="line"/>
		</contour>
	</outline>
</glyph>
<glyph name="to-113" format="2">
	<advance width="50"/>
	<outline>
		<contour>
			<point x="176.803" y="8.929" type="line"/>
			<point x="226.803" y="-1121.071" type="line"/>
			<point x="-176.803" y="-1138.929" type="line"/>
			<point x="-226.803" y="-8.929" type="line"/>
		</contour>
	</outline>
</glyph>
<glyph name="to-114" format="2">
	<advance width="50"/>
	<outline>
		<contour>
			<point x="176.806" y="8.851" type="line"/>
			<point x="226.806" y="-1131.149" type="line"/>
			<point x="-176.806" y="-1148.851" type="line"/>
			<point x="-226.806" y="-8.851" type="line"/>
		</contour>
	</outline>
</glyph>
<glyph name="to-115" format="2">
	<advance width="50"/>
	<outline>
		<contour>
			<point x="174.811" y="8.687" type="line"/>
			<point x="224.811" y="-1141.313" type="line"/>
			<point x="-174.811" y="-1158.687" type="line"/>
			<point x="-224.811" y="-8.687" type="line"/>
		</contour>
	</outline>
</glyph>
<glyph name="to-116" format="2">
	<advance width="50"/>
	<outline>
		<contour>
			<point x="74.907" y="4.306" type="line"/>
			<point x="124.907" y="-1155.694" type="line"/>
			<point x="-74.907" y="-1164.306" type="line"/>
			<point x="-124.907" y="-4.306" type="line"/>
		</contour>
	</outline>
</glyph>
<glyph name="to-117" format="2">
	<advance width="50"/>
	<outline>
		<contour>
			<point x="176.816" y="8.625" type="line"/>
			<point x="226.816" y="-1161.375" type="line"/>
			<point x="-176.816" y="-1178.625" type="line"/>
			<point x="-226.816" y="-8.625" type="line"/>
		</contour>
	</outline>
</glyph>
<glyph name="to-118" format="2">
	<advance width="50"/>
	<outline>
		<contour>
			<point x="74.91" y="4.233" type="line"/>
			<point x="124.91" y="-1175.767" type="line"/>
			<point x="-74.91" y="-1184.233" type="line"/>
			<point x="-124.91" y="-4.233" type="line"/>
		</contour>
	</outline>
</glyph>
<glyph name="to-119" format="2">
	<advance width="50"/>
	<outline>
		<contour>
			<point x="174.824" y="8.396" type="line"/>
			<point x="224.824" y="-1181.604" type="line"/>
			<point x="-174.824" y="-1198.396" type="line"/>
			<point x="-224.824" y="-8.396" type="line"/>
		</contour>
	</outline>
</glyph>
<glyph name="to-12" format="2">
	<advance width="50"/>
	<outline>
		<contour>
			<point x="159.615" y="76.923" type="line"/>
			<point x="209.615" y="-43.077" type="line"/>
			<point x="-159.615" y="-196.923" type="line"/>
			<point x="-209.615" y="-76.923" type="line"/>
		</contour>
	</outline>
</glyph>
<glyph name="to-121" format="2">
	<advance width="50"/>
	<outline>
		<contour>
			<point x="174.829" y="8.257" type="line"/>
			<point x="224.829" y="-1201.743" type="line"/>
			<point x="-174.829" y="-1218.257" type="line"/>
			<point x="-224.829" y="-8.257" type="line"/>
		</contour>
	</outline>
</glyph>
<glyph name="to-123" format="2">
	<advance width="50"/>
	<outline>
		<contour>
			<point x="176.833" y="8.205" type="line"/>
			<point x="226.833" y="-1221.795" type="line"/>
			<point x="-176.833" y="-1238.205" type="line"/>
			<point x="-226.833" y="-8.205" type="line"/>
		</contour>
	</outline>
</glyph>
<glyph name="to-124" format="2">
	<advance width="50"/>
	<outline>
		<contour>
			<point x="176.836" y="8.139" type="line"/>
			<point x="226.836" y="-1231.861" type="line"/>
			<point x="-176.836" y="-1248.139" type="line"/>
			<point x="-226.836" y="-8.139" type="line"/>
		</contour>
	</outline>
</glyph>
<glyph name="to-125" format="2">
	<advance width="50"/>
	<outline>
		<contour>
			<point x="174.84" y="7.994" type="line"/>
			<point x="224.84" y="-1242.006" type="line"/>
			<point x="-174.84" y="-1257.994" type="line"/>
			<point x="-224.84" y="-7.994" type="line"/>
		</contour>
	</outline>
</glyph>
<glyph name="to-126" format="2">
	<advance width="50"/>
	<outline>
		<contour>
			<point x="174.843" y="7.93" type="line"/>
			<point x="224.843" y="-1252.07" type="line"/>
			<point x="-174.843" y="-1267.93" type="line"/>
			<point x="-224.843" y="-7.93" type="line"/>
		</contour>
	</outline>
</glyph>
<glyph name="to-127" format="2">
	<advance width="50"/>
	<outline>
		<contour>
			<point x="74.923" y="3.934" type="line"/>
			<point x="124.923" y="-1266.066" type="line"/>
			<point x="-74.923" y="-1273.934" type="line"/>
			<point x="-124.923" y="-3.934" type="line"/>
		</contour>
	</outline>
</glyph>
<glyph name="to-13" format="2">
	<advance width="50"/>
	<outline>
		<contour>
			<point x="68.335" y="35.898" type="line"/>
			<point x="118.335" y="-94.102" type="line"/>
			<point x="-68.335" y="-165.898" type="line"/>
			<point x="-118.335" y="-35.898" type="line"/>
		</contour>
	</outline>
</glyph>
<glyph name="to-14" format="2">
	<advance width="50"/>
	<outline>
		<contour>
			<point x="163.348" y="67.267" type="line"/>
			<point x="213.348" y="-72.733" type="line"/>
			<point x="-163.348" y="-207.267" type="line"/>
			<point x="-213.348" y="-67.267" type="line"/>
		</contour>
	</outline>
</glyph>
<glyph name="to-15" format="2">
	<advance width="50"/>
	<outline>
		<contour>
			<point x="164.737" y="63.246" type="line"/>
			<point x="214.737" y="-86.754" type="line"/>
			<point x="-164.737" y="-213.246" type="line"/>
			<point x="-214.737" y="-63.246" type="line"/>
		</contour>
	</outline>
</glyph>
<glyph name="to-18" format="2">
	<advance width="50"/>
	<outline>
		<contour>
			<point x="169.631" y="54.064" type="line"/>
			<point x="219.631" y="-125.936" type="line"/>
			<point x="-169.631" y="-234.064" type="line"/>
			<point x="-219.631" y="-54.064" type="line"/>
		</contour>
	</outline>
</glyph>
<glyph name="to-19" format="2">
	<advance width="50"/>
	<outline>
		<contour>
			<point x="170.349" y="51.408" type="line"/>
			<point x="220.349" y="-138.592" type="line"/>
			<point x="-170.349" y="-241.408" type="line"/>
			<point x="-220.349" y="-51.408" type="line"/>
		</contour>
	</outline>
</glyph>
<glyph name="to-2" format="2">
	<advance width="50"/>
	<outline>
		<contour>
			<point x="49.278" y="185.695" type="line"/>
			<point x="99.278" y="165.695" type="line"/>
			<point x="-49.278" y="-205.695" type="line"/>
			<point x="-99.278" y="-185.695" type="line"/>
		</contour>
	</outline>
</glyph>
<glyph name="to-20" format="2">
	<advance width="50"/>
	<outline>
		<contour>
			<point x="169.029" y="48.507" type="line"/>
			<point x="219.029" y="-151.493" type="line"/>
			<point x="-169.029" y="-248.507" type="line"/>
			<point x="-219.029" y="-48.507" type="line"/>
		</contour>
	</outline>
</glyph>
<glyph name="to-21" format="2">
	<advance width="50"/>
	<outline>
		<contour>
			<point x="171.507" y="46.787" type="line"/>
			<point x="221.507" y="-163.213" type="line"/>
			<point x="-171.507" y="-256.787" type="line"/>
			<point x="-221.507" y="-46.787" type="line"/>
		</contour>
	</outline>
</glyph>
<glyph name="to-22" format="2">
	<advance width="50"/>
	<outline>
		<contour>
			<point x="170.027" y="44.324" type="line"/>
			<point x="220.027" y="-175.676" type="line"/>
			<point x="-170.027" y="-264.324" type="line"/>
			<point x="-220.027" y="-44.324" type="line"/>
		</contour>
	</outline>
</glyph>
<glyph name="to-24" format="2">
	<advance width="50"/>
	<outline>
		<contour>
			<point x="170.796" y="40.791" type="line"/>
			<point x="220.796" y="-199.209" type="line"/>
			<point x="-170.796" y="-280.791" type="line"/>
			<point x="-220.796" y="-40.791" type="line"/>
		</contour>
	</outline>
</glyph>
<glyph name="to-25" format="2">
	<advance width="50"/>
	<outline>
		<contour>
			<point x="171.116" y="39.223" type="line"/>
			<point x="221.116" y="-210.777" type="line"/>
			<point x="-171.116" y="-289.223" type="line"/>
			<point x="-221.116" y="-39.223" type="line"/>
		</contour>
	</outline>
</glyph>
<glyph name="to-26" format="2">
	<advance width="50"/>
	<outline>
		<contour>
			<point x="173.365" y="38.147" type="line"/>
			<point x="223.365" y="-221.853" type="line"/>
			<point x="-173.365" y="-298.147" type="line"/>
			<point x="-223.365" y="-38.147" type="line"/>
		</contour>
	</outline>
</glyph>
<glyph name="to-27" format="2">
	<advance width="50"/>
	<outline>
		<contour>
			<point x="171.656" y="36.418" type="line"/>
			<point x="221.656" y="-233.582" type="line"/>
			<point x="-171.656" y="-306.418" type="line"/>
			<point x="-221.656" y="-36.418" type="line"/>
		</contour>
	</outline>
</glyph>
<glyph name="to-28" format="2">
	<advance width="50"/>
	<outline>
		<contour>
			<point x="173.854" y="35.51" type="line"/>
			<point x="223.854" y="-244.49" type="line"/>
			<point x="-173.854" y="-315.51" type="line"/>
			<point x="-223.854" y="-35.51" type="line"/>
		</contour>
	</outline>
</glyph>
<glyph name="to-29" format="2">
	<advance width="50"/>
	<outline>
		<contour>
			<point x="174.063" y="34.321" type="line"/>
			<point x="224.063" y="-255.679" type="line"/>
			<point x="-174.063" y="-324.321" type="line"/>
			<point x="-224.063" y="-34.321" type="line"/>
		</contour>
	</outline>
</glyph>
<glyph name="to-3" format="2">
	<advance width="50"/>
	<outline>
		<contour>
			<point x="78.928" y="173.214" type="line"/>
			<point x="128.928" y="143.214" type="line"/>
			<point x="-78.928" y="-203.214" type="line"/>
			<point x="-128.928" y="-173.214" type="line"/>
		</contour>
	</outline>
</glyph>
<glyph name="to-30" format="2">
	<advance width="50"/>
	<outline>
		<contour>
			<point x="172.279" y="32.88" type="line"/>
			<point x="222.279" y="-267.12" type="line"/>
			<point x="-172.279" y="-332.88" type="line"/>
			<point x="-222.279" y="-32.88" type="line"/>
		</contour>
	</outline>
</glyph>
<glyph name="to-31" format="2">
	<advance width="50"/>
	<outline>
		<contour>
			<point x="172.448" y="31.846" type="line"/>
			<point x="222.448" y="-278.154" type="line"/>
			<point x="-172.448" y="-341.846" type="line"/>
			<point x="-222.448" y="-31.846" type="line"/>
		</contour>
	</outline>
</glyph>
<glyph name="to-32" format="2">
	<advance width="50"/>
	<outline>
		<contour>
			<point x="174.578" y="31.184" type="line"/>
			<point x="224.578" y="-288.816" type="line"/>
			<point x="-174.578" y="-351.184" type="line"/>
			<point x="-224.578" y="-31.184" type="line"/>
		</contour>
	</outline>
</glyph>
<glyph name="to-33" format="2">
	<advance width="50"/>
	<outline>
		<contour>
			<point x="172.743" y="29.961" type="line"/>
			<point x="222.743" y="-300.039" type="line"/>
			<point x="-172.743" y="-359.961" type="line"/>
			<point x="-222.743" y="-29.961" type="line"/>
		</contour>
	</outline>
</glyph>
<glyph name="to-34" format="2">
	<advance width="50"/>
	<outline>
		<contour>
			<point x="172.872" y="29.099" type="line"/>
			<point x="222.872" y="-310.901" type="line"/>
			<point x="-172.872" y="-369.099" type="line"/>
			<point x="-222.872" y="-29.099" type="line"/>
		</contour>
	</outline>
</glyph>
<glyph name="to-35" format="2">
	<advance width="50"/>
	<outline>
		<contour>
			<point x="172.99" y="28.284" type="line"/>
			<point x="222.99" y="-321.716" type="line"/>
			<point x="-172.99" y="-378.284" type="line"/>
			<point x="-222.99" y="-28.284" type="line"/>
		</contour>
	</outline>
</glyph>
<glyph name="to-36" format="2">
	<advance width="50"/>
	<outline>
		<contour>
			<point x="173.098" y="27.514" type="line"/>
			<point x="223.098" y="-332.486" type="line"/>
			<point x="-173.098" y="-387.514" type="line"/>
			<point x="-223.098" y="-27.514" type="line"/>
		</contour>
	</outline>
</glyph>
<glyph name="to-37" format="2">
	<advance width="50"/>
	<outline>
		<contour>
			<point x="175.18" y="27.051" type="line"/>
			<point x="225.18" y="-342.949" type="line"/>
			<point x="-175.18" y="-397.051" type="line"/>
			<point x="-225.18" y="-27.051" type="line"/>
		</contour>
	</outline>
</glyph>
<glyph name="to-38" format="2">
	<advance width="50"/>
	<outline>
		<contour>
			<point x="175.274" y="26.352" type="line"/>
			<point x="225.274" y="-353.648" type="line"/>
			<point x="-175.274" y="-406.352" type="line"/>
			<point x="-225.274" y="-26.352" type="line"/>
		</contour>
	</outline>
</glyph>
<glyph name="to-39" format="2">
	<advance width="50"/>
	<outline>
		<contour>
			<point x="175.36" y="25.687" type="line"/>
			<point x="225.36" y="-364.313" type="line"/>
			<point x="-175.36" y="-415.687" type="line"/>
			<point x="-225.36" y="-25.687" type="line"/>
		</contour>
	</outline>
</glyph>
<glyph name="to-40" format="2">
	<advance width="50"/>
	<outline>
		<contour>
			<point x="74.228" y="12.403" type="line"/>
			<point x="124.228" y="-387.597" type="line"/>
			<point x="-74.228" y="-412.403" type="line"/>
			<point x="-124.228" y="-12.403" type="line"/>
		</contour>
	</outline>
</glyph>
<glyph name="to-41" format="2">
	<advance width="50"/>
	<outline>
		<contour>
			<point x="175.514" y="24.453" type="line"/>
			<point x="225.514" y="-385.547" type="line"/>
			<point x="-175.514" y="-434.453" type="line"/>
			<point x="-225.514" y="-24.453" type="line"/>
		</contour>
	</outline>
</glyph>
<glyph name="to-42" format="2">
	<advance width="50"/>
	<outline>
		<contour>
			<point x="74.299" y="11.821" type="line"/>
			<point x="124.299" y="-408.179" type="line"/>
			<point x="-74.299" y="-431.821" type="line"/>
			<point x="-124.299" y="-11.821" type="line"/>
		</contour>
	</outline>
</glyph>
<glyph name="to-43" format="2">
	<advance width="50"/>
	<outline>
		<contour>
			<point x="175.648" y="23.331" type="line"/>
			<point x="225.648" y="-406.669" type="line"/>
			<point x="-175.648" y="-453.331" type="line"/>
			<point x="-225.648" y="-23.331" type="line"/>
		</contour>
	</outline>
</glyph>
<glyph name="to-44" format="2">
	<advance width="50"/>
	<outline>
		<contour>
			<point x="175.708" y="22.808" type="line"/>
			<point x="225.708" y="-417.192" type="line"/>
			<point x="-175.708" y="-462.808" type="line"/>
			<point x="-225.708" y="-22.808" type="line"/>
		</contour>
	</outline>
</glyph>
<glyph name="to-45" format="2">
	<advance width="50"/>
	<outline>
		<contour>
			<point x="175.765" y="22.307" type="line"/>
			<point x="225.765" y="-427.693" type="line"/>
			<point x="-175.765" y="-472.307" type="line"/>
			<point x="-225.765" y="-22.307" type="line"/>
		</contour>
	</outline>
</glyph>
<glyph name="to-46" format="2">
	<advance width="50"/>
	<outline>
		<contour>
			<point x="173.829" y="21.612" type="line"/>
			<point x="223.829" y="-438.388" type="line"/>
			<point x="-173.829" y="-481.612" type="line"/>
			<point x="-223.829" y="-21.612" type="line"/>
		</contour>
	</outline>
</glyph>
<glyph name="to-47" format="2">
	<advance width="50"/>
	<outline>
		<contour>
			<point x="173.878" y="21.157" type="line"/>
			<point x="223.878" y="-448.843" type="line"/>
			<point x="-173.878" y="-491.157" type="line"/>
			<point x="-223.878" y="-21.157" type="line"/>
		</contour>
	</outline>
</glyph>
<glyph name="to-50" format="2">
	<advance width="50"/>
	<outline>
		<contour>
			<point x="175.998" y="20.1" type="line"/>
			<point x="225.998" y="-479.9" type="line"/>
			<point x="-175.998" y="-520.1" type="line"/>
			<point x="-225.998" y="-20.1" type="line"/>
		</contour>
	</outline>
</glyph>
<glyph name="to-52" format="2">
	<advance width="50"/>
	<outline>
		<contour>
			<point x="174.082" y="19.142" type="line"/>
			<point x="224.082" y="-500.858" type="line"/>
			<point x="-174.082" y="-539.142" type="line"/>
			<point x="-224.082" y="-19.142" type="line"/>
		</contour>
	</outline>
</glyph>
<glyph name="to-53" format="2">
	<advance width="50"/>
	<outline>
		<contour>
			<point x="176.107" y="18.972" type="line"/>
			<point x="226.107" y="-511.028" type="line"/>
			<point x="-176.107" y="-548.972" type="line"/>
			<point x="-226.107" y="-18.972" type="line"/>
		</contour>
	</outline>
</glyph>
<glyph name="to-54" format="2">
	<advance width="50"/>
	<outline>
		<contour>
			<point x="176.14" y="18.624" type="line"/>
			<point x="226.14" y="-521.376" type="line"/>
			<point x="-176.14" y="-558.624" type="line"/>
			<point x="-226.14" y="-18.624" type="line"/>
		</contour>
	</outline>
</glyph>
<glyph name="to-56" format="2">
	<advance width="50"/>
	<outline>
		<contour>
			<point x="174.208" y="17.786" type="line"/>
			<point x="224.208" y="-542.214" type="line"/>
			<point x="-174.208" y="-577.786" type="line"/>
			<point x="-224.208" y="-17.786" type="line"/>
		</contour>
	</outline>
</glyph>
<glyph name="to-57" format="2">
	<advance width="50"/>
	<outline>
		<contour>
			<point x="176.227" y="17.652" type="line"/>
			<point x="226.227" y="-552.348" type="line"/>
			<point x="-176.227" y="-587.652" type="line"/>
			<point x="-226.227" y="-17.652" type="line"/>
		</contour>
	</outline>
</glyph>
<glyph name="to-58" format="2">
	<advance width="50"/>
	<outline>
		<contour>
			<point x="174.261" y="17.178" type="line"/>
			<point x="224.261" y="-562.822" type="line"/>
			<point x="-174.261" y="-597.178" type="line"/>
			<point x="-224.261" y="-17.178" type="line"/>
		</contour>
	</outline>
</glyph>
<glyph name="to-59" format="2">
	<advance width="50"/>
	<outline>
		<contour>
			<point x="174.286" y="16.889" type="line"/>
			<point x="224.286" y="-573.111" type="line"/>
			<point x="-174.286" y="-606.889" type="line"/>
			<point x="-224.286" y="-16.889" type="line"/>
		</contour>
	</outline>
</glyph>
<glyph name="to-6" format="2">
	<advance width="50"/>
	<outline>
		<contour>
			<point x="130.181" y="129.317" type="line"/>
			<point x="180.181" y="69.317" type="line"/>
			<point x="-130.181" y="-189.317" type="line"/>
			<point x="-180.181" y="-129.317" type="line"/>
		</contour>
	</outline>
</glyph>
<glyph name="to-61" format="2">
	<advance width="50"/>
	<outline>
		<contour>
			<point x="176.325" y="16.502" type="line"/>
			<point x="226.325" y="-593.498" type="line"/>
			<point x="-176.325" y="-626.502" type="line"/>
			<point x="-226.325" y="-16.502" type="line"/>
		</contour>
	</outline>
</glyph>
<glyph name="to-62" format="2">
	<advance width="50"/>
	<outline>
		<contour>
			<point x="174.353" y="16.077" type="line"/>
			<point x="224.353" y="-603.923" type="line"/>
			<point x="-174.353" y="-636.077" type="line"/>
			<point x="-224.353" y="-16.077" type="line"/>
		</contour>
	</outline>
</glyph>
<glyph name="to-63" format="2">
	<advance width="50"/>
	<outline>
		<contour>
			<point x="74.687" y="7.912" type="line"/>
			<point x="124.687" y="-622.088" type="line"/>
			<point x="-74.687" y="-637.912" type="line"/>
			<point x="-124.687" y="-7.912" type="line"/>
		</contour>
	</outline>
</glyph>
<glyph name="to-64" format="2">
	<advance width="50"/>
	<outline>
		<contour>
			<point x="174.392" y="15.578" type="line"/>
			<point x="224.392" y="-624.422" type="line"/>
			<point x="-174.392" y="-655.578" type="line"/>
			<point x="-224.392" y="-15.578" type="line"/>
		</contour>
	</outline>
</glyph>
<glyph name="to-65" format="2">
	<advance width="50"/>
	<outline>
		<contour>
			<point x="176.405" y="15.493" type="line"/>
			<point x="226.405" y="-634.507" type="line"/>
			<point x="-176.405" y="-665.493" type="line"/>
			<point x="-226.405" y="-15.493" type="line"/>
		</contour>
	</outline>
</glyph>
<glyph name="to-66" format="2">
	<advance width="50"/>
	<outline>
		<contour>
			<point x="74.714" y="7.554" type="line"/>
			<point x="124.714" y="-652.446" type="line"/>
			<point x="-74.714" y="-667.554" type="line"/>
			<point x="-124.714" y="-7.554" type="line"/>
		</contour>
	</outline>
</glyph>
<glyph name="to-67" format="2">
	<advance width="50"/>
	<outline>
		<contour>
			<point x="176.44" y="15.033" type="line"/>
			<point x="226.44" y="-654.967" type="line"/>
			<point x="-176.44" y="-685.033" type="line"/>
			<point x="-226.44" y="-15.033" type="line"/>
		</contour>
	</outline>
</glyph>
<glyph name="to-68" format="2">
	<advance width="50"/>
	<outline>
		<contour>
			<point x="176.456" y="14.813" type="line"/>
			<point x="226.456" y="-665.187" type="line"/>
			<point x="-176.456" y="-694.813" type="line"/>
			<point x="-226.456" y="-14.813" type="line"/>
		</contour>
	</outline>
</glyph>
<glyph name="to-69" format="2">
	<advance width="50"/>
	<outline>
		<contour>
			<point x="174.477" y="14.455" type="line"/>
			<point x="224.477" y="-675.545" type="line"/>
			<point x="-174.477" y="-704.455" type="line"/>
			<point x="-224.477" y="-14.455" type="line"/>
		</contour>
	</outline>
</glyph>
<glyph name="to-7" format="2">
	<advance width="50"/>
	<outline>
		<contour>
			<point x="56.373" y="58.124" type="line"/>
			<point x="106.373" y="-11.876" type="line"/>
			<point x="-56.373" y="-128.124" type="line"/>
			<point x="-106.373" y="-58.124" type="line"/>
		</contour>
	</outline>
</glyph>
<glyph name="to-71" format="2">
	<advance width="50"/>
	<outline>
		<contour>
			<point x="176.501" y="14.19" type="line"/>
			<point x="226.501" y="-695.81" type="line"/>
			<point x="-176.501" y="-724.19" type="line"/>
			<point x="-226.501" y="-14.19" type="line"/>
		</contour>
	</outline>
</glyph>
<glyph name="to-72" format="2">
	<advance width="50"/>
	<outline>
		<contour>
			<point x="176.515" y="13.994" type="line"/>
			<point x="226.515" y="-706.006" type="line"/>
			<point x="-176.515" y="-733.994" type="line"/>
			<point x="-226.515" y="-13.994" type="line"/>
		</contour>
	</outline>
</glyph>
<glyph name="to-73" format="2">
	<advance width="50"/>
	<outline>
		<contour>
			<point x="174.533" y="13.667" type="line"/>
			<point x="224.533" y="-716.333" type="line"/>
			<point x="-174.533" y="-743.667" type="line"/>
			<point x="-224.533" y="-13.667" type="line"/>
		</contour>
	</outline>
</glyph>
<glyph name="to-75" format="2">
	<advance width="50"/>
	<outline>
		<contour>
			<point x="174.557" y="13.304" type="line"/>
			<point x="224.557" y="-736.696" type="line"/>
			<point x="-174.557" y="-763.304" type="line"/>
			<point x="-224.557" y="-13.304" type="line"/>
		</contour>
	</outline>
</glyph>
<glyph name="to-77" format="2">
	<advance width="50"/>
	<outline>
		<contour>
			<point x="176.575" y="13.089" type="line"/>
			<point x="226.575" y="-756.911" type="line"/>
			<point x="-176.575" y="-783.089" type="line"/>
			<point x="-226.575" y="-13.089" type="line"/>
		</contour>
	</outline>
</glyph>
<glyph name="to-78" format="2">
	<advance width="50"/>
	<outline>
		<contour>
			<point x="174.59" y="12.794" type="line"/>
			<point x="224.59" y="-767.206" type="line"/>
			<point x="-174.59" y="-792.794" type="line"/>
			<point x="-224.59" y="-12.794" type="line"/>
		</contour>
	</outline>
</glyph>
<glyph name="to-8" format="2">
	<advance width="50"/>
	<outline>
		<contour>
			<point x="144.6" y="105" type="line"/>
			<point x="194.6" y="25" type="line"/>
			<point x="-144.6" y="-185" type="line"/>
			<point x="-194.6" y="-105" type="line"/>
		</contour>
	</outline>
</glyph>
<glyph name="to-80" format="2">
	<advance width="50"/>
	<outline>
		<contour>
			<point x="74.805" y="6.238" type="line"/>
			<point x="124.805" y="-793.762" type="line"/>
			<point x="-74.805" y="-806.238" type="line"/>
			<point x="-124.805" y="-6.238" type="line"/>
		</contour>
	</outline>
</glyph>
<glyph name="to-81" format="2">
	<advance width="50"/>
	<outline>
		<contour>
			<point x="176.616" y="12.445" type="line"/>
			<point x="226.616" y="-797.555" type="line"/>
			<point x="-176.616" y="-822.445" type="line"/>
			<point x="-226.616" y="-12.445" type="line"/>
		</contour>
	</outline>
</glyph>
<glyph name="to-82" format="2">
	<advance width="50"/>
	<outline>
		<contour>
			<point x="176.626" y="12.294" type="line"/>
			<point x="226.626" y="-807.706" type="line"/>
			<point x="-176.626" y="-832.294" type="line"/>
			<point x="-226.626" y="-12.294" type="line"/>
		</contour>
	</outline>
</glyph>
<glyph name="to-83" format="2">
	<advance width="50"/>
	<outline>
		<contour>
			<point x="176.634" y="12.147" type="line"/>
			<point x="226.634" y="-817.853" type="line"/>
			<point x="-176.634" y="-842.147" type="line"/>
			<point x="-226.634" y="-12.147" type="line"/>
		</contour>
	</outline>
</glyph>
<glyph name="to-86" format="2">
	<advance width="50"/>
	<outline>
		<contour>
			<point x="176.659" y="11.724" type="line"/>
			<point x="226.659" y="-848.276" type="line"/>
			<point x="-176.659" y="-871.724" type="line"/>
			<point x="-226.659" y="-11.724" type="line"/>
		</contour>
	</outline>
</glyph>
<glyph name="to-87" format="2">
	<advance width="50"/>
	<outline>
		<contour>
			<point x="174.671" y="11.475" type="line"/>
			<point x="224.671" y="-858.525" type="line"/>
			<point x="-174.671" y="-881.475" type="line"/>
			<point x="-224.671" y="-11.475" type="line"/>
		</contour>
	</outline>
</glyph>
<glyph name="to-88" format="2">
	<advance width="50"/>
	<outline>
		<contour>
			<point x="176.675" y="11.459" type="line"/>
			<point x="226.675" y="-868.541" type="line"/>
			<point x="-176.675" y="-891.459" type="line"/>
			<point x="-226.675" y="-11.459" type="line"/>
		</contour>
	</outline>
</glyph>
<glyph name="to-89" format="2">
	<advance width="50"/>
	<outline>
		<contour>
			<point x="176.682" y="11.33" type="line"/>
			<point x="226.682" y="-878.67" type="line"/>
			<point x="-176.682" y="-901.33" type="line"/>
			<point x="-226.682" y="-11.33" type="line"/>
		</contour>
	</outline>
</glyph>
<glyph name="to-9" format="2">
	<advance width="50"/>
	<outline>
		<contour>
			<point x="151.58" y="98.1" type="line"/>
			<point x="201.58" y="8.1" type="line"/>
			<point x="-151.58" y="-188.1" type="line"/>
			<point x="-201.58" y="-98.1" type="line"/>
		</contour>
	</outline>
</glyph>
<glyph name="to-91" format="2">
	<advance width="50"/>
	<outline>
		<contour>
			<point x="176.696" y="11.082" type="line"/>
			<point x="226.696" y="-898.918" type="line"/>
			<point x="-176.696" y="-921.082" type="line"/>
			<point x="-226.696" y="-11.082" type="line"/>
		</contour>
	</outline>
</glyph>
<glyph name="to-92" format="2">
	<advance width="50"/>
	<outline>
		<contour>
			<point x="176.702" y="10.962" type="line"/>
			<point x="226.702" y="-909.038" type="line"/>
			<point x="-176.702" y="-930.962" type="line"/>
			<point x="-226.702" y="-10.962" type="line"/>
		</contour>
	</outline>
</glyph>
<glyph name="to-93" format="2">
	<advance width="50"/>
	<outline>
		<contour>
			<point x="176.709" y="10.845" type="line"/>
			<point x="226.709" y="-919.155" type="line"/>
			<point x="-176.709" y="-940.845" type="line"/>
			<point x="-226.709" y="-10.845" type="line"/>
		</contour>
	</outline>
</glyph>
<glyph name="to-94" format="2">
	<advance width="50"/>
	<outline>
		<contour>
			<point x="176.715" y="10.73" type="line"/>
			<point x="226.715" y="-929.27" type="line"/>
			<point x="-176.715" y="-950.73" type="line"/>
			<point x="-226.715" y="-10.73" type="line"/>
		</contour>
	</outline>
</glyph>
<glyph name="to-95" format="2">
	<advance width="50"/>
	<outline>
		<contour>
			<point x="176.721" y="10.617" type="line"/>
			<point x="226.721" y="-939.383" type="line"/>
			<point x="-176.721" y="-960.617" type="line"/>
			<point x="-226.721" y="-10.617" type="line"/>
		</contour>
	</outline>
</glyph>
<glyph name="to-97" format="2">
	<advance width="50"/>
	<outline>
		<contour>
			<point x="174.735" y="10.296" type="line"/>
			<point x="224.735" y="-959.704" type="line"/>
			<point x="-174.735" y="-980.296" type="line"/>
			<point x="-224.735" y="-10.296" type="line"/>
		</contour>
	</outline>
</glyph>
<glyph name="to-98" format="2">
	<advance width="50"/>
	<outline>
		<contour>
			<point x="74.87" y="5.095" type="line"/>
			<point x="124.87" y="-974.905" type="line"/>
			<point x="-74.87" y="-985.095" type="line"/>
			<point x="-124.87" y="-5.095" type="line"/>
		</contour>
	</outline>
</glyph>
<glyph name="to1" format="2">
	<advance width="50"/>
	<outline>
		<contour>
			<point x="-64.615" y="198.077" type="line"/>
			<point x="-14.615" y="208.077" type="line"/>
			<point x="64.615" y="-188.077" type="line"/>
			<point x="14.615" y="-198.077" type="line"/>
		</contour>
	</outline>
</glyph>
<glyph name="to10" format="2">
	<advance width="50"/>
	<outline>
		<contour>
			<point x="-203.885" y="89.443" type="line"/>
			<point x="-153.885" y="189.443" type="line"/>
			<point x="203.885" y="10.557" type="line"/>
			<point x="153.885" y="-89.443" type="line"/>
		</contour>
	</outline>
</glyph>
<glyph name="to100" format="2">
	<advance width="50"/>
	<outline>
		<contour>
			<point x="-226.748" y="10.087" type="line"/>
			<point x="-176.748" y="1010.087" type="line"/>
			<point x="226.748" y="989.913" type="line"/>
			<point x="176.748" y="-10.087" type="line"/>
		</contour>
	</outline>
</glyph>
<glyph name="to103" format="2">
	<advance width="50"/>
	<outline>
		<contour>
			<point x="-226.762" y="9.794" type="line"/>
			<point x="-176.762" y="1039.794" type="line"/>
			<point x="226.762" y="1020.206" type="line"/>
			<point x="176.762" y="-9.794" type="line"/>
		</contour>
	</outline>
</glyph>
<glyph name="to104" format="2">
	<advance width="50"/>
	<outline>
		<contour>
			<point x="-224.769" y="9.604" type="line"/>
			<point x="-174.769" y="1049.604" type="line"/>
			<point x="224.769" y="1030.396" type="line"/>
			<point x="174.769" y="-9.604" type="line"/>
		</contour>
	</outline>
</glyph>
<glyph name="to105" format="2">
	<advance width="50"/>
	<outline>
		<contour>
			<point x="-224.774" y="9.513" type="line"/>
			<point x="-174.774" y="1059.513" type="line"/>
			<point x="224.774" y="1040.487" type="line"/>
			<point x="174.774" y="-9.513" type="line"/>
		</contour>
	</outline>
</glyph>
<glyph name="to106" format="2">
	<advance width="50"/>
	<outline>
		<contour>
			<point x="-226.776" y="9.518" type="line"/>
			<point x="-176.776" y="1069.518" type="line"/>
			<point x="226.776" y="1050.482" type="line"/>
			<point x="176.776" y="-9.518" type="line"/>
		</contour>
	</outline>
</glyph>
<glyph name="to107" format="2">
	<advance width="50"/>
	<outline>
		<contour>
			<point x="-226.78" y="9.429" type="line"/>
			<point x="-176.78" y="1079.429" type="line"/>
			<point x="226.78" y="1060.571" type="line"/>
			<point x="176.78" y="-9.429" type="line"/>
		</contour>
	</outline>
</glyph>
<glyph name="to108" format="2">
	<advance width="50"/>
	<outline>
		<contour>
			<point x="-224.786" y="9.249" type="line"/>
			<point x="-174.786" y="1089.249" type="line"/>
			<point x="224.786" y="1070.751" type="line"/>
			<point x="174.786" y="-9.249" type="line"/>
		</contour>
	</outline>
</glyph>
<glyph name="to109" format="2">
	<advance width="50"/>
	<outline>
		<contour>
			<point x="-224.79" y="9.165" type="line"/>
			<point x="-174.79" y="1099.165" type="line"/>
			<point x="224.79" y="1080.835" type="line"/>
			<point x="174.79" y="-9.165" type="line"/>
		</contour>
	</outline>
</glyph>
<glyph name="to110" format="2">
	<advance width="50"/>
	<outline>
		<contour>
			<point x="-124.897" y="4.541" type="line"/>
			<point x="-74.897" y="1104.541" type="line"/>
			<point x="124.897" y="1095.459" type="line"/>
			<point x="74.897" y="-4.541" type="line"/>
		</contour>
	</outline>
</glyph>
<glyph name="to111" format="2">
	<advance width="50"/>
	<outline>
		<contour>
			<point x="-224.797" y="8" type="line"/>
			<point x="-174.797" y="1118" type="line"/>
			<point x="224.797" y="1101" type="line"/>
			<point x="174.797" y="-8" type="line"/>
		</contour>
	</outline>
</glyph>
<glyph name="to112" format="2">
	<advance width="50"/>
	<outline>
		<contour>
			<point x="-226.799" y="9.009" type="line"/>
			<point x="-176.799" y="1129.009" type="line"/>
			<point x="226.799" y="1110.991" type="line"/>
			<point x="176.799" y="-9.009" type="line"/>
		</contour>
	</outline>
</glyph>
<glyph name="to113" format="2">
	<advance width="50"/>
	<outline>
		<contour>
			<point x="-224.805" y="8.841" type="line"/>
			<point x="-174.805" y="1138.841" type="line"/>
			<point x="224.805" y="1121.159" type="line"/>
			<point x="174.805" y="-8.841" type="line"/>
		</contour>
	</outline>
</glyph>
<glyph name="to114" format="2">
	<advance width="50"/>
	<outline>
		<contour>
			<point x="-224.808" y="8.764" type="line"/>
			<point x="-174.808" y="1148.764" type="line"/>
			<point x="224.808" y="1131.236" type="line"/>
			<point x="174.808" y="-8.764" type="line"/>
		</contour>
	</outline>
</glyph>
<glyph name="to115" format="2">
	<advance width="50"/>
	<outline>
		<contour>
			<point x="-226.809" y="8.774" type="line"/>
			<point x="-176.809" y="1158.774" type="line"/>
			<point x="226.809" y="1141.226" type="line"/>
			<point x="176.809" y="-8.774" type="line"/>
		</contour>
	</outline>
</glyph>
<glyph name="to116" format="2">
	<advance width="50"/>
	<outline>
		<contour>
			<point x="-224.814" y="8.613" type="line"/>
			<point x="-174.814" y="1168.613" type="line"/>
			<point x="224.814" y="1151.387" type="line"/>
			<point x="174.814" y="-8.613" type="line"/>
		</contour>
	</outline>
</glyph>
<glyph name="to117" format="2">
	<advance width="50"/>
	<outline>
		<contour>
			<point x="-224.818" y="8.539" type="line"/>
			<point x="-174.818" y="1178.539" type="line"/>
			<point x="224.818" y="1161.461" type="line"/>
			<point x="174.818" y="-8.539" type="line"/>
		</contour>
	</outline>
</glyph>
<glyph name="to118" format="2">
	<advance width="50"/>
	<outline>
		<contour>
			<point x="-226.819" y="8.552" type="line"/>
			<point x="-176.819" y="1188.552" type="line"/>
			<point x="226.819" y="1171.448" type="line"/>
			<point x="176.819" y="-8.552" type="line"/>
		</contour>
	</outline>
</glyph>
<glyph name="to119" format="2">
	<advance width="50"/>
	<outline>
		<contour>
			<point x="-226.822" y="8.48" type="line"/>
			<point x="-176.822" y="1198.48" type="line"/>
			<point x="226.822" y="1181.52" type="line"/>
			<point x="176.822" y="-8.48" type="line"/>
		</contour>
	</outline>
</glyph>
<glyph name="to12" format="2">
	<advance width="50"/>
	<outline>
		<contour>
			<point x="-117.308" y="38.462" type="line"/>
			<point x="-67.308" y="158.462" type="line"/>
			<point x="117.308" y="81.538" type="line"/>
			<point x="67.308" y="-38.462" type="line"/>
		</contour>
	</outline>
</glyph>
<glyph name="to120" format="2">
	<advance width="50"/>
	<outline>
		<contour>
			<point x="-224.827" y="8.326" type="line"/>
			<point x="-174.827" y="1208.326" type="line"/>
			<point x="224.827" y="1191.674" type="line"/>
			<point x="174.827" y="-8.326" type="line"/>
		</contour>
	</outline>
</glyph>
<glyph name="to122" format="2">
	<advance width="50"/>
	<outline>
		<contour>
			<point x="-226.831" y="8.272" type="line"/>
			<point x="-176.831" y="1228.272" type="line"/>
			<point x="226.831" y="1211.728" type="line"/>
			<point x="176.831" y="-8.272" type="line"/>
		</contour>
	</outline>
</glyph>
<glyph name="to123" format="2">
	<advance width="50"/>
	<outline>
		<contour>
			<point x="-124.917" y="4.062" type="line"/>
			<point x="-74.917" y="1234.062" type="line"/>
			<point x="124.917" y="1225.938" type="line"/>
			<point x="74.917" y="-4.062" type="line"/>
		</contour>
	</outline>
</glyph>
<glyph name="to124" format="2">
	<advance width="50"/>
	<outline>
		<contour>
			<point x="-224.838" y="8.058" type="line"/>
			<point x="-174.838" y="1248.058" type="line"/>
			<point x="224.838" y="1231.942" type="line"/>
			<point x="174.838" y="-8.058" type="line"/>
		</contour>
	</outline>
</glyph>
<glyph name="to125" format="2">
	<advance width="50"/>
	<outline>
		<contour>
			<point x="-124.92" y="3.997" type="line"/>
			<point x="-74.92" y="1253.997" type="line"/>
			<point x="124.92" y="1246.003" type="line"/>
			<point x="74.92" y="-3.997" type="line"/>
		</contour>
	</outline>
</glyph>
<glyph name="to126" format="2">
	<advance width="50"/>
	<outline>
		<contour>
			<point x="-226.841" y="8.01" type="line"/>
			<point x="-176.841" y="1268.01" type="line"/>
			<point x="226.841" y="1251.99" type="line"/>
			<point x="176.841" y="-8.01" type="line"/>
		</contour>
	</outline>
</glyph>
<glyph name="to127" format="2">
	<advance width="50"/>
	<outline>
		<contour>
			<point x="-224.845" y="7.868" type="line"/>
			<point x="-174.845" y="1277.868" type="line"/>
			<point x="224.845" y="1262.132" type="line"/>
			<point x="174.845" y="-7.868" type="line"/>
		</contour>
	</outline>
</glyph>
<glyph name="to13" format="2">
	<advance width="50"/>
	<outline>
		<contour>
			<point x="-211.669" y="71.796" type="line"/>
			<point x="-161.669" y="201.796" type="line"/>
			<point x="211.669" y="58.204" type="line"/>
			<point x="161.669" y="-71.796" type="line"/>
		</contour>
	</outline>
</glyph>
<glyph name="to14" format="2">
	<advance width="50"/>
	<outline>
		<contour>
			<point x="-215.232" y="67.94" type="line"/>
			<point x="-165.232" y="207.94" type="line"/>
			<point x="215.232" y="72.06" type="line"/>
			<point x="165.232" y="-67.94" type="line"/>
		</contour>
	</outline>
</glyph>
<glyph name="to15" format="2">
	<advance width="50"/>
	<outline>
		<contour>
			<point x="-216.634" y="63.878" type="line"/>
			<point x="-166.634" y="213.878" type="line"/>
			<point x="216.634" y="86.122" type="line"/>
			<point x="166.634" y="-63.878" type="line"/>
		</contour>
	</outline>
</glyph>
<glyph name="to16" format="2">
	<advance width="50"/>
	<outline>
		<contour>
			<point x="-217.805" y="60.252" type="line"/>
			<point x="-167.805" y="220.252" type="line"/>
			<point x="217.805" y="99.748" type="line"/>
			<point x="167.805" y="-60.252" type="line"/>
		</contour>
	</outline>
</glyph>
<glyph name="to17" format="2">
	<advance width="50"/>
	<outline>
		<contour>
			<point x="-216.873" y="56.433" type="line"/>
			<point x="-166.873" y="226.433" type="line"/>
			<point x="216.873" y="113.567" type="line"/>
			<point x="166.873" y="-56.433" type="line"/>
		</contour>
	</outline>
</glyph>
<glyph name="to18" format="2">
	<advance width="50"/>
	<outline>
		<contour>
			<point x="-219.631" y="54.064" type="line"/>
			<point x="-169.631" y="234.064" type="line"/>
			<point x="219.631" y="125.936" type="line"/>
			<point x="169.631" y="-54.064" type="line"/>
		</contour>
	</outline>
</glyph>
<glyph name="to2" format="2">
	<advance width="50"/>
	<outline>
		<contour>
			<point x="-100.021" y="187.552" type="line"/>
			<point x="-50.021" y="207.552" type="line"/>
			<point x="100.021" y="-167.552" type="line"/>
			<point x="50.021" y="-187.552" type="line"/>
		</contour>
	</outline>
</glyph>
<glyph name="to20" format="2">
	<advance width="50"/>
	<outline>
		<contour>
			<point x="-219.029" y="48.507" type="line"/>
			<point x="-169.029" y="248.507" type="line"/>
			<point x="219.029" y="151.493" type="line"/>
			<point x="169.029" y="-48.507" type="line"/>
		</contour>
	</outline>
</glyph>
<glyph name="to22" format="2">
	<advance width="50"/>
	<outline>
		<contour>
			<point x="-221.977" y="44.767" type="line"/>
			<point x="-171.977" y="264.767" type="line"/>
			<point x="221.977" y="175.233" type="line"/>
			<point x="171.977" y="-44.767" type="line"/>
		</contour>
	</outline>
</glyph>
<glyph name="to23" format="2">
	<advance width="50"/>
	<outline>
		<contour>
			<point x="-222.39" y="42.911" type="line"/>
			<point x="-172.39" y="272.911" type="line"/>
			<point x="222.39" y="187.089" type="line"/>
			<point x="172.39" y="-42.911" type="line"/>
		</contour>
	</outline>
</glyph>
<glyph name="to24" format="2">
	<advance width="50"/>
	<outline>
		<contour>
			<point x="-122.898" y="20.395" type="line"/>
			<point x="-72.898" y="260.395" type="line"/>
			<point x="122.898" y="219.605" type="line"/>
			<point x="72.898" y="-20.395" type="line"/>
		</contour>
	</outline>
</glyph>
<glyph name="to25" format="2">
	<advance width="50"/>
	<outline>
		<contour>
			<point x="-123.058" y="19.612" type="line"/>
			<point x="-73.058" y="269.612" type="line"/>
			<point x="123.058" y="230.388" type="line"/>
			<point x="73.058" y="-19.612" type="line"/>
		</contour>
	</outline>
</glyph>
<glyph name="to26" format="2">
	<advance width="50"/>
	<outline>
		<contour>
			<point x="-221.401" y="37.769" type="line"/>
			<point x="-171.401" y="297.769" type="line"/>
			<point x="221.401" y="222.231" type="line"/>
			<point x="171.401" y="-37.769" type="line"/>
		</contour>
	</outline>
</glyph>
<glyph name="to27" format="2">
	<advance width="50"/>
	<outline>
		<contour>
			<point x="-223.623" y="36.782" type="line"/>
			<point x="-173.623" y="306.782" type="line"/>
			<point x="223.623" y="233.218" type="line"/>
			<point x="173.623" y="-36.782" type="line"/>
		</contour>
	</outline>
</glyph>
<glyph name="to3" format="2">
	<advance width="50"/>
	<outline>
		<contour>
			<point x="-127.899" y="171.499" type="line"/>
			<point x="-77.899" y="201.499" type="line"/>
			<point x="127.899" y="-141.499" type="line"/>
			<point x="77.899" y="-171.499" type="line"/>
		</contour>
	</outline>
</glyph>
<glyph name="to30" format="2">
	<advance width="50"/>
	<outline>
		<contour>
			<point x="-224.252" y="33.209" type="line"/>
			<point x="-174.252" y="333.209" type="line"/>
			<point x="224.252" y="266.791" type="line"/>
			<point x="174.252" y="-33.209" type="line"/>
		</contour>
	</outline>
</glyph>
<glyph name="to32" format="2">
	<advance width="50"/>
	<outline>
		<contour>
			<point x="-222.602" y="30.875" type="line"/>
			<point x="-172.602" y="350.875" type="line"/>
			<point x="222.602" y="289.125" type="line"/>
			<point x="172.602" y="-30.875" type="line"/>
		</contour>
	</outline>
</glyph>
<glyph name="to33" format="2">
	<advance width="50"/>
	<outline>
		<contour>
			<point x="-224.721" y="30.261" type="line"/>
			<point x="-174.721" y="360.261" type="line"/>
			<point x="224.721" y="299.739" type="line"/>
			<point x="174.721" y="-30.261" type="line"/>
		</contour>
	</outline>
</glyph>
<glyph name="to34" format="2">
	<advance width="50"/>
	<outline>
		<contour>
			<point x="-224.851" y="29.39" type="line"/>
			<point x="-174.851" y="369.39" type="line"/>
			<point x="224.851" y="310.61" type="line"/>
			<point x="174.851" y="-29.39" type="line"/>
		</contour>
	</outline>
</glyph>
<glyph name="to35" format="2">
	<advance width="50"/>
	<outline>
		<contour>
			<point x="-224.97" y="28.567" type="line"/>
			<point x="-174.97" y="378.567" type="line"/>
			<point x="224.97" y="321.433" type="line"/>
			<point x="174.97" y="-28.567" type="line"/>
		</contour>
	</outline>
</glyph>
<glyph name="to36" format="2">
	<advance width="50"/>
	<outline>
		<contour>
			<point x="-225.079" y="27.789" type="line"/>
			<point x="-175.079" y="387.789" type="line"/>
			<point x="225.079" y="332.211" type="line"/>
			<point x="175.079" y="-27.789" type="line"/>
		</contour>
	</outline>
</glyph>
<glyph name="to37" format="2">
	<advance width="50"/>
	<outline>
		<contour>
			<point x="-223.198" y="26.784" type="line"/>
			<point x="-173.198" y="396.784" type="line"/>
			<point x="223.198" y="343.216" type="line"/>
			<point x="173.198" y="-26.784" type="line"/>
		</contour>
	</outline>
</glyph>
<glyph name="to38" format="2">
	<advance width="50"/>
	<outline>
		<contour>
			<point x="-223.291" y="26.091" type="line"/>
			<point x="-173.291" y="406.091" type="line"/>
			<point x="223.291" y="353.909" type="line"/>
			<point x="173.291" y="-26.091" type="line"/>
		</contour>
	</outline>
</glyph>
<glyph name="to4" format="2">
	<advance width="50"/>
	<outline>
		<contour>
			<point x="-151.188" y="157.735" type="line"/>
			<point x="-101.188" y="197.735" type="line"/>
			<point x="151.188" y="-117.735" type="line"/>
			<point x="101.188" y="-157.735" type="line"/>
		</contour>
	</outline>
</glyph>
<glyph name="to40" format="2">
	<advance width="50"/>
	<outline>
		<contour>
			<point x="-225.44" y="25.055" type="line"/>
			<point x="-175.44" y="425.055" type="line"/>
			<point x="225.44" y="374.945" type="line"/>
			<point x="175.44" y="-25.055" type="line"/>
		</contour>
	</outline>
</glyph>
<glyph name="to41" format="2">
	<advance width="50"/>
	<outline>
		<contour>
			<point x="-223.529" y="24.211" type="line"/>
			<point x="-173.529" y="434.211" type="line"/>
			<point x="223.529" y="385.789" type="line"/>
			<point x="173.529" y="-24.211" type="line"/>
		</contour>
	</outline>
</glyph>
<glyph name="to42" format="2">
	<advance width="50"/>
	<outline>
		<contour>
			<point x="-223.598" y="23.643" type="line"/>
			<point x="-173.598" y="443.643" type="line"/>
			<point x="223.598" y="396.357" type="line"/>
			<point x="173.598" y="-23.643" type="line"/>
		</contour>
	</outline>
</glyph>
<glyph name="to43" format="2">
	<advance width="50"/>
	<outline>
		<contour>
			<point x="-223.661" y="23.1" type="line"/>
			<point x="-173.661" y="453.1" type="line"/>
			<point x="223.661" y="406.9" type="line"/>
			<point x="173.661" y="-23.1" type="line"/>
		</contour>
	</outline>
</glyph>
<glyph name="to44" format="2">
	<advance width="50"/>
	<outline>
		<contour>
			<point x="-223.721" y="22.582" type="line"/>
			<point x="-173.721" y="462.582" type="line"/>
			<point x="223.721" y="417.418" type="line"/>
			<point x="173.721" y="-22.582" type="line"/>
		</contour>
	</outline>
</glyph>
<glyph name="to47" format="2">
	<advance width="50"/>
	<outline>
		<contour>
			<point x="-225.867" y="21.369" type="line"/>
			<point x="-175.867" y="491.369" type="line"/>
			<point x="225.867" y="448.631" type="line"/>
			<point x="175.867" y="-21.369" type="line"/>
		</contour>
	</outline>
</glyph>
<glyph name="to48" format="2">
	<advance width="50"/>
	<outline>
		<contour>
			<point x="-223.924" y="20.721" type="line"/>
			<point x="-173.924" y="500.721" type="line"/>
			<point x="223.924" y="459.279" type="line"/>
			<point x="173.924" y="-20.721" type="line"/>
		</contour>
	</outline>
</glyph>
<glyph name="to49" format="2">
	<advance width="50"/>
	<outline>
		<contour>
			<point x="-225.956" y="20.506" type="line"/>
			<point x="-175.956" y="510.506" type="line"/>
			<point x="225.956" y="469.494" type="line"/>
			<point x="175.956" y="-20.506" type="line"/>
		</contour>
	</outline>
</glyph>
<glyph name="to5" format="2">
	<advance width="50"/>
	<outline>
		<contour>
			<point x="-166.421" y="141.421" type="line"/>
			<point x="-116.421" y="191.421" type="line"/>
			<point x="166.421" y="-91.421" type="line"/>
			<point x="116.421" y="-141.421" type="line"/>
		</contour>
	</outline>
</glyph>
<glyph name="to50" format="2">
	<advance width="50"/>
	<outline>
		<contour>
			<point x="-224.007" y="19.901" type="line"/>
			<point x="-174.007" y="519.901" type="line"/>
			<point x="224.007" y="480.099" type="line"/>
			<point x="174.007" y="-19.901" type="line"/>
		</contour>
	</outline>
</glyph>
<glyph name="to51" format="2">
	<advance width="50"/>
	<outline>
		<contour>
			<point x="-226.036" y="19.709" type="line"/>
			<point x="-176.036" y="529.709" type="line"/>
			<point x="226.036" y="490.291" type="line"/>
			<point x="176.036" y="-19.709" type="line"/>
		</contour>
	</outline>
</glyph>
<glyph name="to52" format="2">
	<advance width="50"/>
	<outline>
		<contour>
			<point x="-124.541" y="9.571" type="line"/>
			<point x="-74.541" y="529.571" type="line"/>
			<point x="124.541" y="510.429" type="line"/>
			<point x="74.541" y="-9.571" type="line"/>
		</contour>
	</outline>
</glyph>
<glyph name="to54" format="2">
	<advance width="50"/>
	<outline>
		<contour>
			<point x="-224.148" y="18.44" type="line"/>
			<point x="-174.148" y="558.44" type="line"/>
			<point x="224.148" y="521.56" type="line"/>
			<point x="174.148" y="-18.44" type="line"/>
		</contour>
	</outline>
</glyph>
<glyph name="to55" format="2">
	<advance width="50"/>
	<outline>
		<contour>
			<point x="-226.17" y="18.288" type="line"/>
			<point x="-176.17" y="568.288" type="line"/>
			<point x="226.17" y="531.712" type="line"/>
			<point x="176.17" y="-18.288" type="line"/>
		</contour>
	</outline>
</glyph>
<glyph name="to56" format="2">
	<advance width="50"/>
	<outline>
		<contour>
			<point x="-124.604" y="8.893" type="line"/>
			<point x="-74.604" y="568.893" type="line"/>
			<point x="124.604" y="551.107" type="line"/>
			<point x="74.604" y="-8.893" type="line"/>
		</contour>
	</outline>
</glyph>
<glyph name="to57" format="2">
	<advance width="50"/>
	<outline>
		<contour>
			<point x="-124.617" y="8.738" type="line"/>
			<point x="-74.617" y="578.738" type="line"/>
			<point x="124.617" y="561.262" type="line"/>
			<point x="74.617" y="-8.738" type="line"/>
		</contour>
	</outline>
</glyph>
<glyph name="to58" format="2">
	<advance width="50"/>
	<outline>
		<contour>
			<point x="-226.254" y="17.349" type="line"/>
			<point x="-176.254" y="597.349" type="line"/>
			<point x="226.254" y="562.651" type="line"/>
			<point x="176.254" y="-17.349" type="line"/>
		</contour>
	</outline>
</glyph>
<glyph name="to59" format="2">
	<advance width="50"/>
	<outline>
		<contour>
			<point x="-226.279" y="17.058" type="line"/>
			<point x="-176.279" y="607.058" type="line"/>
			<point x="226.279" y="572.942" type="line"/>
			<point x="176.279" y="-17.058" type="line"/>
		</contour>
	</outline>
</glyph>
<glyph name="to60" format="2">
	<advance width="50"/>
	<outline>
		<contour>
			<point x="-226.302" y="16.775" type="line"/>
			<point x="-176.302" y="616.775" type="line"/>
			<point x="226.302" y="583.225" type="line"/>
			<point x="176.302" y="-16.775" type="line"/>
		</contour>
	</outline>
</glyph>
<glyph name="to62" format="2">
	<advance width="50"/>
	<outline>
		<contour>
			<point x="-226.346" y="16.238" type="line"/>
			<point x="-176.346" y="636.238" type="line"/>
			<point x="226.346" y="603.762" type="line"/>
			<point x="176.346" y="-16.238" type="line"/>
		</contour>
	</outline>
</glyph>
<glyph name="to63" format="2">
	<advance width="50"/>
	<outline>
		<contour>
			<point x="-224.373" y="15.823" type="line"/>
			<point x="-174.373" y="645.823" type="line"/>
			<point x="224.373" y="614.177" type="line"/>
			<point x="174.373" y="-15.823" type="line"/>
		</contour>
	</outline>
</glyph>
<glyph name="to64" format="2">
	<advance width="50"/>
	<outline>
		<contour>
			<point x="-226.386" y="15.733" type="line"/>
			<point x="-176.386" y="655.733" type="line"/>
			<point x="226.386" y="624.267" type="line"/>
			<point x="176.386" y="-15.733" type="line"/>
		</contour>
	</outline>
</glyph>
<glyph name="to65" format="2">
	<advance width="50"/>
	<outline>
		<contour>
			<point x="-124.705" y="7.67" type="line"/>
			<point x="-74.705" y="657.67" type="line"/>
			<point x="124.705" y="642.33" type="line"/>
			<point x="74.705" y="-7.67" type="line"/>
		</contour>
	</outline>
</glyph>
<glyph name="to66" format="2">
	<advance width="50"/>
	<outline>
		<contour>
			<point x="-224.429" y="15.108" type="line"/>
			<point x="-174.429" y="675.108" type="line"/>
			<point x="224.429" y="644.892" type="line"/>
			<point x="174.429" y="-15.108" type="line"/>
		</contour>
	</outline>
</glyph>
<glyph name="to67" format="2">
	<advance width="50"/>
	<outline>
		<contour>
			<point x="-224.445" y="14.884" type="line"/>
			<point x="-174.445" y="684.884" type="line"/>
			<point x="224.445" y="655.116" type="line"/>
			<point x="174.445" y="-14.884" type="line"/>
		</contour>
	</outline>
</glyph>
<glyph name="to68" format="2">
	<advance width="50"/>
	<outline>
		<contour>
			<point x="-124.731" y="7.333" type="line"/>
			<point x="-74.731" y="687.333" type="line"/>
			<point x="124.731" y="672.667" type="line"/>
			<point x="74.731" y="-7.333" type="line"/>
		</contour>
	</outline>
</glyph>
<glyph name="to69" format="2">
	<advance width="50"/>
	<outline>
		<contour>
			<point x="-226.472" y="14.599" type="line"/>
			<point x="-176.472" y="704.599" type="line"/>
			<point x="226.472" y="675.401" type="line"/>
			<point x="176.472" y="-14.599" type="line"/>
		</contour>
	</outline>
</glyph>
<glyph name="to7" format="2">
	<advance width="50"/>
	<outline>
		<contour>
			<point x="-187.747" y="116.248" type="line"/>
			<point x="-137.747" y="186.248" type="line"/>
			<point x="187.747" y="-46.248" type="line"/>
			<point x="137.747" y="-116.248" type="line"/>
		</contour>
	</outline>
</glyph>
<glyph name="to70" format="2">
	<advance width="50"/>
	<outline>
		<contour>
			<point x="-226.487" y="14.392" type="line"/>
			<point x="-176.487" y="714.392" type="line"/>
			<point x="226.487" y="685.608" type="line"/>
			<point x="176.487" y="-14.392" type="line"/>
		</contour>
	</outline>
</glyph>
<glyph name="to71" format="2">
	<advance width="50"/>
	<outline>
		<contour>
			<point x="-224.506" y="14.05" type="line"/>
			<point x="-174.506" y="724.05" type="line"/>
			<point x="224.506" y="695.95" type="line"/>
			<point x="174.506" y="-14.05" type="line"/>
		</contour>
	</outline>
</glyph>
<glyph name="to73" format="2">
	<advance width="50"/>
	<outline>
		<contour>
			<point x="-124.766" y="6.833" type="line"/>
			<point x="-74.766" y="736.833" type="line"/>
			<point x="124.766" y="723.167" type="line"/>
			<point x="74.766" y="-6.833" type="line"/>
		</contour>
	</outline>
</glyph>
<glyph name="to74" format="2">
	<advance width="50"/>
	<outline>
		<contour>
			<point x="-226.54" y="13.618" type="line"/>
			<point x="-176.54" y="753.618" type="line"/>
			<point x="226.54" y="726.382" type="line"/>
			<point x="176.54" y="-13.618" type="line"/>
		</contour>
	</outline>
</glyph>
<glyph name="to75" format="2">
	<advance width="50"/>
	<outline>
		<contour>
			<point x="-124.779" y="6.652" type="line"/>
			<point x="-74.779" y="756.652" type="line"/>
			<point x="124.779" y="743.348" type="line"/>
			<point x="74.779" y="-6.652" type="line"/>
		</contour>
	</outline>
</glyph>
<glyph name="to76" format="2">
	<advance width="50"/>
	<outline>
		<contour>
			<point x="-226.564" y="13.261" type="line"/>
			<point x="-176.564" y="773.261" type="line"/>
			<point x="226.564" y="746.739" type="line"/>
			<point x="176.564" y="-13.261" type="line"/>
		</contour>
	</outline>
</glyph>
<glyph name="to77" format="2">
	<advance width="50"/>
	<outline>
		<contour>
			<point x="-124.79" y="6.48" type="line"/>
			<point x="-74.79" y="776.48" type="line"/>
			<point x="124.79" y="763.52" type="line"/>
			<point x="74.79" y="-6.48" type="line"/>
		</contour>
	</outline>
</glyph>
<glyph name="to78" format="2">
	<advance width="50"/>
	<outline>
		<contour>
			<point x="-226.586" y="12.922" type="line"/>
			<point x="-176.586" y="792.922" type="line"/>
			<point x="226.586" y="767.078" type="line"/>
			<point x="176.586" y="-12.922" type="line"/>
		</contour>
	</outline>
</glyph>
<glyph name="to79" format="2">
	<advance width="50"/>
	<outline>
		<contour>
			<point x="-226.597" y="12.759" type="line"/>
			<point x="-176.597" y="802.759" type="line"/>
			<point x="226.597" y="777.241" type="line"/>
			<point x="176.597" y="-12.759" type="line"/>
		</contour>
	</outline>
</glyph>
<glyph name="to80" format="2">
	<advance width="50"/>
	<outline>
		<contour>
			<point x="-224.611" y="12.476" type="line"/>
			<point x="-174.611" y="812.476" type="line"/>
			<point x="224.611" y="787.524" type="line"/>
			<point x="174.611" y="-12.476" type="line"/>
		</contour>
	</outline>
</glyph>
<glyph name="to81" format="2">
	<advance width="50"/>
	<outline>
		<contour>
			<point x="-224.62" y="12.322" type="line"/>
			<point x="-174.62" y="822.322" type="line"/>
			<point x="224.62" y="797.678" type="line"/>
			<point x="174.62" y="-12.322" type="line"/>
		</contour>
	</outline>
</glyph>
<glyph name="to83" format="2">
	<advance width="50"/>
	<outline>
		<contour>
			<point x="-224.638" y="12.026" type="line"/>
			<point x="-174.638" y="842.026" type="line"/>
			<point x="224.638" y="817.974" type="line"/>
			<point x="174.638" y="-12.026" type="line"/>
		</contour>
	</outline>
</glyph>
<glyph name="to84" format="2">
	<advance width="50"/>
	<outline>
		<contour>
			<point x="-224.647" y="11.884" type="line"/>
			<point x="-174.647" y="851.884" type="line"/>
			<point x="224.647" y="828.116" type="line"/>
			<point x="174.647" y="-11.884" type="line"/>
		</contour>
	</outline>
</glyph>
<glyph name="to85" format="2">
	<advance width="50"/>
	<outline>
		<contour>
			<point x="-224.655" y="11.744" type="line"/>
			<point x="-174.655" y="861.744" type="line"/>
			<point x="224.655" y="838.256" type="line"/>
			<point x="174.655" y="-11.744" type="line"/>
		</contour>
	</outline>
</glyph>
<glyph name="to87" format="2">
	<advance width="50"/>
	<outline>
		<contour>
			<point x="-226.667" y="11.59" type="line"/>
			<point x="-176.667" y="881.59" type="line"/>
			<point x="226.667" y="858.41" type="line"/>
			<point x="176.667" y="-11.59" type="line"/>
		</contour>
	</outline>
</glyph>
<glyph name="to90" format="2">
	<advance width="50"/>
	<outline>
		<contour>
			<point x="-226.689" y="11.205" type="line"/>
			<point x="-176.689" y="911.205" type="line"/>
			<point x="226.689" y="888.795" type="line"/>
			<point x="176.689" y="-11.205" type="line"/>
		</contour>
	</outline>
</glyph>
<glyph name="to91" format="2">
	<advance width="50"/>
	<outline>
		<contour>
			<point x="-124.849" y="5.486" type="line"/>
			<point x="-74.849" y="915.486" type="line"/>
			<point x="124.849" y="904.514" type="line"/>
			<point x="74.849" y="-5.486" type="line"/>
		</contour>
	</outline>
</glyph>
<glyph name="to92" format="2">
	<advance width="50"/>
	<outline>
		<contour>
			<point x="-124.853" y="5.427" type="line"/>
			<point x="-74.853" y="925.427" type="line"/>
			<point x="124.853" y="914.573" type="line"/>
			<point x="74.853" y="-5.427" type="line"/>
		</contour>
	</outline>
</glyph>
<glyph name="to93" format="2">
	<advance width="50"/>
	<outline>
		<contour>
			<point x="-224.712" y="10.737" type="line"/>
			<point x="-174.712" y="940.737" type="line"/>
			<point x="224.712" y="919.263" type="line"/>
			<point x="174.712" y="-10.737" type="line"/>
		</contour>
	</outline>
</glyph>
<glyph name="to94" format="2">
	<advance width="50"/>
	<outline>
		<contour>
			<point x="-224.718" y="10.623" type="line"/>
			<point x="-174.718" y="950.623" type="line"/>
			<point x="224.718" y="929.377" type="line"/>
			<point x="174.718" y="-10.623" type="line"/>
		</contour>
	</outline>
</glyph>
<glyph name="to95" format="2">
	<advance width="50"/>
	<outline>
		<contour>
			<point x="-224.724" y="10.512" type="line"/>
			<point x="-174.724" y="960.512" type="line"/>
			<point x="224.724" y="939.488" type="line"/>
			<point x="174.724" y="-10.512" type="line"/>
		</contour>
	</outline>
</glyph>
<glyph name="to96" format="2">
	<advance width="50"/>
	<outline>
		<contour>
			<point x="-224.729" y="10.403" type="line"/>
			<point x="-174.729" y="970.403" type="line"/>
			<point x="224.729" y="949.597" type="line"/>
			<point x="174.729" y="-10.403" type="line"/>
		</contour>
	</outline>
</glyph>
<glyph name="to97" format="2">
	<advance width="50"/>
	<outline>
		<contour>
			<point x="-226.732" y="10.399" type="line"/>
			<point x="-176.732" y="980.399" type="line"/>
			<point x="226.732" y="959.601" type="line"/>
			<point x="176.732" y="-10.399" type="line"/>
		</contour>
	</outline>
</glyph>
<glyph name="to98" format="2">
	<advance width="50"/>
	<outline>
		<contour>
			<point x="-224.74" y="10.191" type="line"/>
			<point x="-174.74" y="990.191" type="line"/>
			<point x="224.74" y="969.809" type="line"/>
			<point x="174.74" y="-10.191" type="line"/>
		</contour>
	</outline>
</glyph>
<glyph name="to99" format="2">
	<advance width="50"/>
	<outline>
		<contour>
			<point x="-226.743" y="10.189" type="line"/>
			<point x="-176.743" y="1000.189" type="line"/>
			<point x="226.743" y="979.811" type="line"/>
			<point x="176.743" y="-10.189" type="line"/>
		</contour>
	</outline>
</glyph>
